<?xml version="1.0" encoding="UTF-8" standalone="no"?>
<!DOCTYPE svg PUBLIC "-//W3C//DTD SVG 1.1//EN"
 "http://www.w3.org/Graphics/SVG/1.1/DTD/svg11.dtd">
<!-- Generated by graphviz version 8.0.1 (0)
 -->
<!-- Title: include/Controls/ButtonsProcessor.h Pages: 1 -->
<svg width="279pt" height="258pt"
 viewBox="0.00 0.00 279.00 258.00" xmlns="http://www.w3.org/2000/svg" xmlns:xlink="http://www.w3.org/1999/xlink">
<g id="graph0" class="graph" transform="scale(1 1) rotate(0) translate(4 254)">
<title>include/Controls/ButtonsProcessor.h</title>
<!-- Node1 -->
<g id="node1" class="node">
<title>Node1</title>
<g id="a_node1"><a xlink:title="Handle buttons.">
<polygon fill="#999999" stroke="#666666" points="186.5,-250 62.5,-250 62.5,-220 186.5,-220 186.5,-250"/>
<text text-anchor="start" x="70.5" y="-238" font-family="Helvetica,sans-Serif" font-size="10.00">include/Controls/Buttons</text>
<text text-anchor="middle" x="124.5" y="-227" font-family="Helvetica,sans-Serif" font-size="10.00">Processor.h</text>
</a>
</g>
</g>
<!-- Node2 -->
<g id="node2" class="node">
<title>Node2</title>
<g id="a_node2"><a xlink:title=" ">
<polygon fill="#e0e0e0" stroke="#999999" points="148.5,-19 90.5,-19 90.5,0 148.5,0 148.5,-19"/>
<text text-anchor="middle" x="119.5" y="-7" font-family="Helvetica,sans-Serif" font-size="10.00">Arduino.h</text>
</a>
</g>
</g>
<!-- Node1&#45;&gt;Node2 -->
<g id="edge1" class="edge">
<title>Node1&#45;&gt;Node2</title>
<path fill="none" stroke="#63b8ff" d="M118.67,-219.84C114.94,-209.99 110.44,-196.43 108.5,-184 99.83,-128.47 109.59,-61.93 115.56,-29.77"/>
<polygon fill="#63b8ff" stroke="#63b8ff" points="119.14,-30.71 117.62,-20.23 112.27,-29.37 119.14,-30.71"/>
</g>
<!-- Node3 -->
<g id="node3" class="node">
<title>Node3</title>
<g id="a_node3"><a xlink:href="Button_8h.html" target="_top" xlink:title="Wrapper for button.">
<polygon fill="white" stroke="#666666" points="53,-129 0,-129 0,-110 53,-110 53,-129"/>
<text text-anchor="middle" x="26.5" y="-117" font-family="Helvetica,sans-Serif" font-size="10.00">Button.h</text>
</a>
</g>
</g>
<!-- Node1&#45;&gt;Node3 -->
<g id="edge2" class="edge">
<title>Node1&#45;&gt;Node3</title>
<path fill="none" stroke="#63b8ff" d="M105.59,-219.64C93.88,-210.23 78.94,-197.25 67.5,-184 55.32,-169.89 44.04,-151.89 36.4,-138.66"/>
<polygon fill="#63b8ff" stroke="#63b8ff" points="39.06,-137.25 31.11,-130.24 32.96,-140.67 39.06,-137.25"/>
</g>
<!-- Node4 -->
<g id="node4" class="node">
<title>Node4</title>
<g id="a_node4"><a xlink:href="StateManager_8h.html" target="_top" xlink:title="program state manager">
<polygon fill="white" stroke="#666666" points="271,-74 186,-74 186,-55 271,-55 271,-74"/>
<text text-anchor="middle" x="228.5" y="-62" font-family="Helvetica,sans-Serif" font-size="10.00">StateManager.h</text>
</a>
</g>
</g>
<!-- Node1&#45;&gt;Node4 -->
<g id="edge4" class="edge">
<title>Node1&#45;&gt;Node4</title>
<path fill="none" stroke="#63b8ff" d="M168.25,-219.7C185.39,-211.86 203.55,-200.33 214.5,-184 234.53,-154.13 233.83,-110.28 231.31,-85.15"/>
<polygon fill="#63b8ff" stroke="#63b8ff" points="234.69,-84.96 230,-75.45 227.74,-85.8 234.69,-84.96"/>
</g>
<!-- Node6 -->
<g id="node6" class="node">
<title>Node6</title>
<g id="a_node6"><a xlink:href="Communicator_8h.html" target="_top" xlink:title="communicate with PC via Serial">
<polygon fill="white" stroke="#666666" points="205.5,-184 117.5,-184 117.5,-165 205.5,-165 205.5,-184"/>
<text text-anchor="middle" x="161.5" y="-172" font-family="Helvetica,sans-Serif" font-size="10.00">Communicator.h</text>
</a>
</g>
</g>
<!-- Node1&#45;&gt;Node6 -->
<g id="edge7" class="edge">
<title>Node1&#45;&gt;Node6</title>
<path fill="none" stroke="#63b8ff" d="M133.65,-219.54C138.64,-211.65 144.86,-201.81 150.16,-193.44"/>
<polygon fill="#63b8ff" stroke="#63b8ff" points="153.63,-195.5 156.01,-185.18 147.71,-191.76 153.63,-195.5"/>
</g>
<!-- Node3&#45;&gt;Node2 -->
<g id="edge3" class="edge">
<title>Node3&#45;&gt;Node2</title>
<path fill="none" stroke="#63b8ff" d="M31.09,-109.74C38,-96.95 51.96,-72.79 67.5,-55 76.84,-44.31 88.78,-33.91 98.87,-25.86"/>
<polygon fill="#63b8ff" stroke="#63b8ff" points="100.72,-28.07 106.48,-19.18 96.43,-22.54 100.72,-28.07"/>
</g>
<!-- Node4&#45;&gt;Node2 -->
<g id="edge5" class="edge">
<title>Node4&#45;&gt;Node2</title>
<path fill="none" stroke="#63b8ff" d="M210.01,-54.51C192.84,-46.16 167.03,-33.61 147.36,-24.05"/>
<polygon fill="#63b8ff" stroke="#63b8ff" points="149.24,-20.58 138.72,-19.36 146.18,-26.88 149.24,-20.58"/>
</g>
<!-- Node5 -->
<g id="node5" class="node">
<title>Node5</title>
<g id="a_node5"><a xlink:href="State__Enum_8h.html" target="_top" xlink:title="Enum of program states.">
<polygon fill="white" stroke="#666666" points="268,-19 189,-19 189,0 268,0 268,-19"/>
<text text-anchor="middle" x="228.5" y="-7" font-family="Helvetica,sans-Serif" font-size="10.00">State_Enum.h</text>
</a>
</g>
</g>
<!-- Node4&#45;&gt;Node5 -->
<g id="edge6" class="edge">
<title>Node4&#45;&gt;Node5</title>
<path fill="none" stroke="#63b8ff" d="M228.5,-54.75C228.5,-48.11 228.5,-38.73 228.5,-30.31"/>
<polygon fill="#63b8ff" stroke="#63b8ff" points="232,-30.44 228.5,-20.44 225,-30.44 232,-30.44"/>
</g>
<!-- Node6&#45;&gt;Node2 -->
<g id="edge8" class="edge">
<title>Node6&#45;&gt;Node2</title>
<path fill="none" stroke="#63b8ff" d="M155.86,-164.67C150.55,-155.94 142.8,-142.05 138.5,-129 127.4,-95.29 122.66,-53.99 120.73,-30.11"/>
<polygon fill="#63b8ff" stroke="#63b8ff" points="124.17,-30.07 119.96,-20.35 117.18,-30.57 124.17,-30.07"/>
</g>
<!-- Node6&#45;&gt;Node4 -->
<g id="edge9" class="edge">
<title>Node6&#45;&gt;Node4</title>
<path fill="none" stroke="#63b8ff" d="M169.58,-164.75C177.33,-156.09 189.06,-142.24 197.5,-129 206.57,-114.76 214.85,-97.47 220.57,-84.53"/>
<polygon fill="#63b8ff" stroke="#63b8ff" points="224.16,-86.03 224.89,-75.46 217.73,-83.27 224.16,-86.03"/>
</g>
<!-- Node7 -->
<g id="node7" class="node">
<title>Node7</title>
<g id="a_node7"><a xlink:href="List_8h.html" target="_top" xlink:title="Contains and manipulate list of projects This class contains an array of Strigns which is an projects...">
<polygon fill="white" stroke="#666666" points="189,-129 148,-129 148,-110 189,-110 189,-129"/>
<text text-anchor="middle" x="168.5" y="-117" font-family="Helvetica,sans-Serif" font-size="10.00">List.h</text>
</a>
</g>
</g>
<!-- Node6&#45;&gt;Node7 -->
<g id="edge10" class="edge">
<title>Node6&#45;&gt;Node7</title>
<path fill="none" stroke="#63b8ff" d="M162.66,-164.75C163.53,-158.11 164.77,-148.73 165.88,-140.31"/>
<polygon fill="#63b8ff" stroke="#63b8ff" points="169.48,-140.81 167.32,-130.44 162.54,-139.9 169.48,-140.81"/>
</g>
<!-- Node7&#45;&gt;Node2 -->
<g id="edge11" class="edge">
<title>Node7&#45;&gt;Node2</title>
<path fill="none" stroke="#63b8ff" d="M164.49,-109.66C156.56,-92.18 138.71,-52.84 128.03,-29.3"/>
<polygon fill="#63b8ff" stroke="#63b8ff" points="130.88,-28.12 123.57,-20.46 124.51,-31.01 130.88,-28.12"/>
</g>
<!-- Node7&#45;&gt;Node4 -->
<g id="edge12" class="edge">
<title>Node7&#45;&gt;Node4</title>
<path fill="none" stroke="#63b8ff" d="M178.68,-109.51C187.35,-101.85 200.02,-90.66 210.42,-81.47"/>
<polygon fill="#63b8ff" stroke="#63b8ff" points="212.29,-84.6 217.47,-75.36 207.66,-79.36 212.29,-84.6"/>
</g>
</g>
</svg>
