<?xml version="1.0" encoding="UTF-8" standalone="no"?>
<!DOCTYPE svg PUBLIC "-//W3C//DTD SVG 1.1//EN"
 "http://www.w3.org/Graphics/SVG/1.1/DTD/svg11.dtd">
<!-- Generated by graphviz version 8.0.1 (0)
 -->
<!-- Title: Display Pages: 1 -->
<!--zoomable 617 -->
<svg id="main" version="1.1" xmlns="http://www.w3.org/2000/svg" xmlns:xlink="http://www.w3.org/1999/xlink" xml:space="preserve" onload="init(evt)">
<style type="text/css"><![CDATA[
.edge:hover path { stroke: red; }
.edge:hover polygon { stroke: red; fill: red; }
]]></style>
<script type="text/javascript"><![CDATA[
var edges = document.getElementsByTagName('g');
if (edges && edges.length) {
  for (var i=0;i<edges.length;i++) {
    if (edges[i].id.substr(0,4)=='edge') {
      edges[i].setAttribute('class','edge');
    }
  }
}
]]></script>
        <defs>
                <circle id="rim" cx="0" cy="0" r="7"/>
                <circle id="rim2" cx="0" cy="0" r="3.5"/>
                <g id="zoomPlus">
                        <use xlink:href="#rim" fill="#404040">
                                <set attributeName="fill" to="#808080" begin="zoomplus.mouseover" end="zoomplus.mouseout"/>
                        </use>
                        <path d="M-4,0h8M0,-4v8" fill="none" stroke="white" stroke-width="1.5" pointer-events="none"/>
                </g>
                <g id="zoomMin">
                        <use xlink:href="#rim" fill="#404040">
                                <set attributeName="fill" to="#808080" begin="zoomminus.mouseover" end="zoomminus.mouseout"/>
                        </use>
                        <path d="M-4,0h8" fill="none" stroke="white" stroke-width="1.5" pointer-events="none"/>
                </g>
                <g id="dirArrow">
                        <path fill="none" stroke="white" stroke-width="1.5" d="M0,-3.0v7 M-2.5,-0.5L0,-3.0L2.5,-0.5"/>
                </g>
               <g id="resetDef">
                       <use xlink:href="#rim2" fill="#404040">
                               <set attributeName="fill" to="#808080" begin="reset.mouseover" end="reset.mouseout"/>
                       </use>
               </g>
        </defs>

<script type="text/javascript">
var viewWidth = 425;
var viewHeight = 617;
var sectionId = 'dynsection-0';
</script>
<script xlink:href="svgpan.js"/>
<svg id="graph" class="graph">
<g id="viewport">
<title>Display</title>
<!-- Node1 -->
<g id="node1" class="node">
<title>Node1</title>
<g id="a_node1"><a xlink:title=" ">
<polygon fill="#999999" stroke="#666666" points="35.5,-0.5 35.5,-167.5 272.5,-167.5 272.5,-0.5 35.5,-0.5"/>
<text text-anchor="middle" x="154" y="-155.5" font-family="Helvetica,sans-Serif" font-size="10.00">Display</text>
<polyline fill="none" stroke="#666666" points="35.5,-148.5 272.5,-148.5"/>
<text text-anchor="start" x="43.5" y="-136.5" font-family="Helvetica,sans-Serif" font-size="10.00">&#45; LiquidCrystal_I2C lcd</text>
<text text-anchor="start" x="43.5" y="-125.5" font-family="Helvetica,sans-Serif" font-size="10.00">&#45; String firstRow</text>
<text text-anchor="start" x="43.5" y="-114.5" font-family="Helvetica,sans-Serif" font-size="10.00">&#45; String secondRow</text>
<polyline fill="none" stroke="#666666" points="35.5,-107.5 272.5,-107.5"/>
<text text-anchor="start" x="43.5" y="-95.5" font-family="Helvetica,sans-Serif" font-size="10.00">+ void init()</text>
<text text-anchor="start" x="43.5" y="-84.5" font-family="Helvetica,sans-Serif" font-size="10.00">+ void showLogo()</text>
<text text-anchor="start" x="43.5" y="-73.5" font-family="Helvetica,sans-Serif" font-size="10.00">+ void showList()</text>
<text text-anchor="start" x="43.5" y="-62.5" font-family="Helvetica,sans-Serif" font-size="10.00">+ void showActive()</text>
<text text-anchor="start" x="43.5" y="-51.5" font-family="Helvetica,sans-Serif" font-size="10.00">+ static Display * getInstance()</text>
<text text-anchor="start" x="43.5" y="-40.5" font-family="Helvetica,sans-Serif" font-size="10.00">&#45; Display()</text>
<text text-anchor="start" x="43.5" y="-29.5" font-family="Helvetica,sans-Serif" font-size="10.00">&#45; void print(String text, uint8_t column, uint8_t row)</text>
<text text-anchor="start" x="43.5" y="-18.5" font-family="Helvetica,sans-Serif" font-size="10.00">&#45; void printFirstRow(String text)</text>
<text text-anchor="start" x="43.5" y="-7.5" font-family="Helvetica,sans-Serif" font-size="10.00">&#45; void printSecondRow(String text)</text>
</a>
</g>
</g>
<!-- Node1&#45;&gt;Node1 -->
<g id="edge1" class="edge">
<title>Node1&#45;&gt;Node1</title>
<path fill="none" stroke="#404040" d="M272.41,-100.16C283.5,-96.84 290.5,-91.45 290.5,-84 290.5,-79.69 288.16,-76.07 284.04,-73.15"/>
<polygon fill="none" stroke="#404040" points="284.15,-73.19 277.03,-74.34 273.23,-68.21 280.35,-67.07 284.15,-73.19"/>
<text text-anchor="middle" x="312" y="-81.5" font-family="Helvetica,sans-Serif" font-size="10.00"> &#45;_display</text>
</g>
<!-- Node2 -->
<g id="node2" class="node">
<title>Node2</title>
<g id="a_node2"><a xlink:href="classList.html" target="_top" xlink:title=" ">
<polygon fill="white" stroke="#666666" points="186.5,-215.5 186.5,-371.5 373.5,-371.5 373.5,-215.5 186.5,-215.5"/>
<text text-anchor="middle" x="280" y="-359.5" font-family="Helvetica,sans-Serif" font-size="10.00">List</text>
<polyline fill="none" stroke="#666666" points="186.5,-352.5 373.5,-352.5"/>
<text text-anchor="start" x="194.5" y="-340.5" font-family="Helvetica,sans-Serif" font-size="10.00">&#45; int size</text>
<text text-anchor="start" x="194.5" y="-329.5" font-family="Helvetica,sans-Serif" font-size="10.00">&#45; int offset</text>
<text text-anchor="start" x="194.5" y="-318.5" font-family="Helvetica,sans-Serif" font-size="10.00">&#45; String list</text>
<polyline fill="none" stroke="#666666" points="186.5,-311.5 373.5,-311.5"/>
<text text-anchor="start" x="194.5" y="-299.5" font-family="Helvetica,sans-Serif" font-size="10.00">+ void setProjects(String list[], int size)</text>
<text text-anchor="start" x="194.5" y="-288.5" font-family="Helvetica,sans-Serif" font-size="10.00">+ void moveUp()</text>
<text text-anchor="start" x="194.5" y="-277.5" font-family="Helvetica,sans-Serif" font-size="10.00">+ void moveDown()</text>
<text text-anchor="start" x="194.5" y="-266.5" font-family="Helvetica,sans-Serif" font-size="10.00">+ String getFirstProject()</text>
<text text-anchor="start" x="194.5" y="-255.5" font-family="Helvetica,sans-Serif" font-size="10.00">+ String getSecondProject()</text>
<text text-anchor="start" x="194.5" y="-244.5" font-family="Helvetica,sans-Serif" font-size="10.00">+ static List * getInstance()</text>
<text text-anchor="start" x="194.5" y="-233.5" font-family="Helvetica,sans-Serif" font-size="10.00">&#45; List()</text>
<text text-anchor="start" x="194.5" y="-222.5" font-family="Helvetica,sans-Serif" font-size="10.00">&#45; String getProject(int index)</text>
</a>
</g>
</g>
<!-- Node2&#45;&gt;Node1 -->
<g id="edge2" class="edge">
<title>Node2&#45;&gt;Node1</title>
<path fill="none" stroke="#404040" d="M233.26,-215.53C225.89,-203.4 218.21,-190.74 210.65,-178.29"/>
<polygon fill="none" stroke="#404040" points="210.74,-178.44 204.21,-175.39 204.51,-168.19 211.05,-171.24 210.74,-178.44"/>
<text text-anchor="middle" x="229.5" y="-189" font-family="Helvetica,sans-Serif" font-size="10.00"> &#45;list</text>
</g>
<!-- Node2&#45;&gt;Node2 -->
<g id="edge3" class="edge">
<title>Node2&#45;&gt;Node2</title>
<path fill="none" stroke="#404040" d="M373.13,-309.94C384.24,-306.95 391.5,-301.47 391.5,-293.5 391.5,-288.89 389.07,-285.12 384.88,-282.18"/>
<polygon fill="none" stroke="#404040" points="384.96,-282.21 377.86,-283.49 373.95,-277.42 381.05,-276.15 384.96,-282.21"/>
<text text-anchor="middle" x="404" y="-291" font-family="Helvetica,sans-Serif" font-size="10.00"> &#45;_list</text>
</g>
<!-- Node3 -->
<g id="node3" class="node">
<title>Node3</title>
<g id="a_node3"><a xlink:href="classStateManager.html" target="_top" xlink:title=" ">
<polygon fill="white" stroke="#666666" points="0,-419.5 0,-608.5 236,-608.5 236,-419.5 0,-419.5"/>
<text text-anchor="middle" x="118" y="-596.5" font-family="Helvetica,sans-Serif" font-size="10.00">StateManager</text>
<polyline fill="none" stroke="#666666" points="0,-589.5 236,-589.5"/>
<text text-anchor="start" x="8" y="-577.5" font-family="Helvetica,sans-Serif" font-size="10.00">&#45; State connectionState</text>
<text text-anchor="start" x="8" y="-566.5" font-family="Helvetica,sans-Serif" font-size="10.00">&#45; State listState</text>
<text text-anchor="start" x="8" y="-555.5" font-family="Helvetica,sans-Serif" font-size="10.00">&#45; State projectState</text>
<text text-anchor="start" x="8" y="-544.5" font-family="Helvetica,sans-Serif" font-size="10.00">&#45; String activeProject</text>
<polyline fill="none" stroke="#666666" points="0,-537.5 236,-537.5"/>
<text text-anchor="start" x="8" y="-525.5" font-family="Helvetica,sans-Serif" font-size="10.00">+ State getConnectionState()</text>
<text text-anchor="start" x="8" y="-514.5" font-family="Helvetica,sans-Serif" font-size="10.00">+ void setConnectionState(State connectionState)</text>
<text text-anchor="start" x="8" y="-503.5" font-family="Helvetica,sans-Serif" font-size="10.00">+ State getProjectState()</text>
<text text-anchor="start" x="8" y="-492.5" font-family="Helvetica,sans-Serif" font-size="10.00">+ void setProjectState(State projectState)</text>
<text text-anchor="start" x="8" y="-481.5" font-family="Helvetica,sans-Serif" font-size="10.00">+ State getListState()</text>
<text text-anchor="start" x="8" y="-470.5" font-family="Helvetica,sans-Serif" font-size="10.00">+ void setListState(State listState)</text>
<text text-anchor="start" x="8" y="-459.5" font-family="Helvetica,sans-Serif" font-size="10.00">+ String getActiveProject()</text>
<text text-anchor="start" x="8" y="-448.5" font-family="Helvetica,sans-Serif" font-size="10.00">+ void setActiveProject(String project)</text>
<text text-anchor="start" x="8" y="-437.5" font-family="Helvetica,sans-Serif" font-size="10.00">+ static StateManager * getInstance()</text>
<text text-anchor="start" x="8" y="-426.5" font-family="Helvetica,sans-Serif" font-size="10.00">&#45; StateManager()</text>
</a>
</g>
</g>
<!-- Node3&#45;&gt;Node1 -->
<g id="edge6" class="edge">
<title>Node3&#45;&gt;Node1</title>
<path fill="none" stroke="#404040" d="M107.76,-419.81C103.33,-360.76 101.29,-282.98 112,-215 113.84,-203.35 116.54,-191.32 119.71,-179.5"/>
<polygon fill="none" stroke="#404040" points="119.66,-179.69 117.44,-172.83 122.92,-168.15 125.14,-175.01 119.66,-179.69"/>
<text text-anchor="middle" x="145" y="-291" font-family="Helvetica,sans-Serif" font-size="10.00"> &#45;stateManager</text>
</g>
<!-- Node3&#45;&gt;Node2 -->
<g id="edge4" class="edge">
<title>Node3&#45;&gt;Node2</title>
<path fill="none" stroke="#404040" d="M187.17,-419.7C196.51,-407.11 206.06,-394.22 215.32,-381.74"/>
<polygon fill="none" stroke="#404040" points="215.33,-381.72 215.69,-374.52 222.48,-372.08 222.12,-379.28 215.33,-381.72"/>
<text text-anchor="middle" x="241" y="-393" font-family="Helvetica,sans-Serif" font-size="10.00"> &#45;stateManager</text>
</g>
<!-- Node3&#45;&gt;Node3 -->
<g id="edge5" class="edge">
<title>Node3&#45;&gt;Node3</title>
<path fill="none" stroke="#404040" d="M235.98,-531.81C247.03,-528.15 254,-522.22 254,-514 254,-509.25 251.67,-505.26 247.57,-502.03"/>
<polygon fill="none" stroke="#404040" points="247.5,-502 240.34,-502.87 236.78,-496.59 243.94,-495.73 247.5,-502"/>
<text text-anchor="middle" x="289.5" y="-511.5" font-family="Helvetica,sans-Serif" font-size="10.00"> &#45;_stateManager</text>
</g>
</g>
</svg>
        <g id="navigator" transform="translate(0 0)" fill="#404254">
                <rect fill="#f2f5e9" fill-opacity="0.5" stroke="#606060" stroke-width=".5" x="0" y="0" width="60" height="60"/>
                <use id="zoomplus" xlink:href="#zoomPlus" x="17" y="9" onmousedown="handleZoom(evt,'in')"/>
                <use id="zoomminus" xlink:href="#zoomMin" x="42" y="9" onmousedown="handleZoom(evt,'out')"/>
                <use id="reset" xlink:href="#resetDef" x="30" y="36" onmousedown="handleReset()"/>
                <g id="arrowUp" xlink:href="#dirArrow" transform="translate(30 24)" onmousedown="handlePan(0,-1)">
                  <use xlink:href="#rim" fill="#404040">
                        <set attributeName="fill" to="#808080" begin="arrowUp.mouseover" end="arrowUp.mouseout"/>
                  </use>
                  <path fill="none" stroke="white" stroke-width="1.5" d="M0,-3.0v7 M-2.5,-0.5L0,-3.0L2.5,-0.5"/>
                </g>
                <g id="arrowRight" xlink:href="#dirArrow" transform="rotate(90) translate(36 -43)" onmousedown="handlePan(1,0)">
                  <use xlink:href="#rim" fill="#404040">
                        <set attributeName="fill" to="#808080" begin="arrowRight.mouseover" end="arrowRight.mouseout"/>
                  </use>
                  <path fill="none" stroke="white" stroke-width="1.5" d="M0,-3.0v7 M-2.5,-0.5L0,-3.0L2.5,-0.5"/>
                </g>
                <g id="arrowDown" xlink:href="#dirArrow" transform="rotate(180) translate(-30 -48)" onmousedown="handlePan(0,1)">
                  <use xlink:href="#rim" fill="#404040">
                        <set attributeName="fill" to="#808080" begin="arrowDown.mouseover" end="arrowDown.mouseout"/>
                  </use>
                  <path fill="none" stroke="white" stroke-width="1.5" d="M0,-3.0v7 M-2.5,-0.5L0,-3.0L2.5,-0.5"/>
                </g>
                <g id="arrowLeft" xlink:href="#dirArrow" transform="rotate(270) translate(-36 17)" onmousedown="handlePan(-1,0)">
                  <use xlink:href="#rim" fill="#404040">
                        <set attributeName="fill" to="#808080" begin="arrowLeft.mouseover" end="arrowLeft.mouseout"/>
                  </use>
                  <path fill="none" stroke="white" stroke-width="1.5" d="M0,-3.0v7 M-2.5,-0.5L0,-3.0L2.5,-0.5"/>
                </g>
        </g>
        <svg viewBox="0 0 15 15" width="100%" height="30px" preserveAspectRatio="xMaxYMin meet">
         <g id="arrow_out" transform="scale(0.3 0.3)">
          <a xlink:href="classDisplay__coll__graph_org.svg" target="_base">
           <rect id="button" ry="5" rx="5" y="6" x="6" height="38" width="38"
                fill="#f2f5e9" fill-opacity="0.5" stroke="#606060" stroke-width="1.0"/>
           <path id="arrow"
             d="M 11.500037,31.436501 C 11.940474,20.09759 22.043105,11.32322 32.158766,21.979434 L 37.068811,17.246167 C 37.068811,17.246167 37.088388,32 37.088388,32 L 22.160133,31.978069 C 22.160133,31.978069 26.997745,27.140456 26.997745,27.140456 C 18.528582,18.264221 13.291696,25.230495 11.500037,31.436501 z"
             style="fill:#404040;"/>
          </a>
         </g>
        </svg>
</svg>
