<?xml version="1.0" encoding="UTF-8" standalone="no"?>
<!DOCTYPE svg PUBLIC "-//W3C//DTD SVG 1.1//EN"
 "http://www.w3.org/Graphics/SVG/1.1/DTD/svg11.dtd">
<!-- Generated by graphviz version 8.0.1 (0)
 -->
<!-- Title: Display Pages: 1 -->
<svg width="288pt" height="617pt"
 viewBox="0.00 0.00 287.50 617.00" xmlns="http://www.w3.org/2000/svg" xmlns:xlink="http://www.w3.org/1999/xlink">
<g id="graph0" class="graph" transform="scale(1 1) rotate(0) translate(4 613)">
<title>Display</title>
<!-- Node1 -->
<g id="node1" class="node">
<title>Node1</title>
<g id="a_node1"><a xlink:title=" ">
<polygon fill="#999999" stroke="#666666" points="35.5,-0.5 35.5,-167.5 136.5,-167.5 136.5,-0.5 35.5,-0.5"/>
<text text-anchor="middle" x="86" y="-155.5" font-family="Helvetica,sans-Serif" font-size="10.00">Display</text>
<polyline fill="none" stroke="#666666" points="35.5,-148.5 136.5,-148.5"/>
<text text-anchor="start" x="43.5" y="-136.5" font-family="Helvetica,sans-Serif" font-size="10.00">&#45; lcd</text>
<text text-anchor="start" x="43.5" y="-125.5" font-family="Helvetica,sans-Serif" font-size="10.00">&#45; firstRow</text>
<text text-anchor="start" x="43.5" y="-114.5" font-family="Helvetica,sans-Serif" font-size="10.00">&#45; secondRow</text>
<polyline fill="none" stroke="#666666" points="35.5,-107.5 136.5,-107.5"/>
<text text-anchor="start" x="43.5" y="-95.5" font-family="Helvetica,sans-Serif" font-size="10.00">+ init()</text>
<text text-anchor="start" x="43.5" y="-84.5" font-family="Helvetica,sans-Serif" font-size="10.00">+ showLogo()</text>
<text text-anchor="start" x="43.5" y="-73.5" font-family="Helvetica,sans-Serif" font-size="10.00">+ showList()</text>
<text text-anchor="start" x="43.5" y="-62.5" font-family="Helvetica,sans-Serif" font-size="10.00">+ showActive()</text>
<text text-anchor="start" x="43.5" y="-51.5" font-family="Helvetica,sans-Serif" font-size="10.00">+ getInstance()</text>
<text text-anchor="start" x="43.5" y="-40.5" font-family="Helvetica,sans-Serif" font-size="10.00">&#45; Display()</text>
<text text-anchor="start" x="43.5" y="-29.5" font-family="Helvetica,sans-Serif" font-size="10.00">&#45; print()</text>
<text text-anchor="start" x="43.5" y="-18.5" font-family="Helvetica,sans-Serif" font-size="10.00">&#45; printFirstRow()</text>
<text text-anchor="start" x="43.5" y="-7.5" font-family="Helvetica,sans-Serif" font-size="10.00">&#45; printSecondRow()</text>
</a>
</g>
</g>
<!-- Node1&#45;&gt;Node1 -->
<g id="edge1" class="edge">
<title>Node1&#45;&gt;Node1</title>
<path fill="none" stroke="#404040" d="M136.48,-103.45C146.96,-101.4 154.5,-94.92 154.5,-84 154.5,-77.86 152.12,-73.12 148.16,-69.79"/>
<polygon fill="none" stroke="#404040" points="148.26,-69.83 141.14,-71.02 137.3,-64.92 144.42,-63.72 148.26,-69.83"/>
<text text-anchor="middle" x="176" y="-81.5" font-family="Helvetica,sans-Serif" font-size="10.00"> &#45;_display</text>
</g>
<!-- Node2 -->
<g id="node2" class="node">
<title>Node2</title>
<g id="a_node2"><a xlink:href="classList.html" target="_top" xlink:title=" ">
<polygon fill="white" stroke="#666666" points="127.5,-215.5 127.5,-371.5 236.5,-371.5 236.5,-215.5 127.5,-215.5"/>
<text text-anchor="middle" x="182" y="-359.5" font-family="Helvetica,sans-Serif" font-size="10.00">List</text>
<polyline fill="none" stroke="#666666" points="127.5,-352.5 236.5,-352.5"/>
<text text-anchor="start" x="135.5" y="-340.5" font-family="Helvetica,sans-Serif" font-size="10.00">&#45; size</text>
<text text-anchor="start" x="135.5" y="-329.5" font-family="Helvetica,sans-Serif" font-size="10.00">&#45; offset</text>
<text text-anchor="start" x="135.5" y="-318.5" font-family="Helvetica,sans-Serif" font-size="10.00">&#45; list</text>
<polyline fill="none" stroke="#666666" points="127.5,-311.5 236.5,-311.5"/>
<text text-anchor="start" x="135.5" y="-299.5" font-family="Helvetica,sans-Serif" font-size="10.00">+ setProjects()</text>
<text text-anchor="start" x="135.5" y="-288.5" font-family="Helvetica,sans-Serif" font-size="10.00">+ moveUp()</text>
<text text-anchor="start" x="135.5" y="-277.5" font-family="Helvetica,sans-Serif" font-size="10.00">+ moveDown()</text>
<text text-anchor="start" x="135.5" y="-266.5" font-family="Helvetica,sans-Serif" font-size="10.00">+ getFirstProject()</text>
<text text-anchor="start" x="135.5" y="-255.5" font-family="Helvetica,sans-Serif" font-size="10.00">+ getSecondProject()</text>
<text text-anchor="start" x="135.5" y="-244.5" font-family="Helvetica,sans-Serif" font-size="10.00">+ getInstance()</text>
<text text-anchor="start" x="135.5" y="-233.5" font-family="Helvetica,sans-Serif" font-size="10.00">&#45; List()</text>
<text text-anchor="start" x="135.5" y="-222.5" font-family="Helvetica,sans-Serif" font-size="10.00">&#45; getProject()</text>
</a>
</g>
</g>
<!-- Node2&#45;&gt;Node1 -->
<g id="edge2" class="edge">
<title>Node2&#45;&gt;Node1</title>
<path fill="none" stroke="#404040" d="M146.39,-215.53C140.89,-203.64 135.16,-191.25 129.51,-179.04"/>
<polygon fill="none" stroke="#404040" points="129.55,-179.12 123.4,-175.36 124.51,-168.23 130.66,-172 129.55,-179.12"/>
<text text-anchor="middle" x="145.5" y="-189" font-family="Helvetica,sans-Serif" font-size="10.00"> &#45;list</text>
</g>
<!-- Node2&#45;&gt;Node2 -->
<g id="edge3" class="edge">
<title>Node2&#45;&gt;Node2</title>
<path fill="none" stroke="#404040" d="M236.38,-311.77C246.98,-309.65 254.5,-303.56 254.5,-293.5 254.5,-287.84 252.12,-283.44 248.15,-280.29"/>
<polygon fill="none" stroke="#404040" points="248.23,-280.33 241.14,-281.63 237.21,-275.58 244.3,-274.28 248.23,-280.33"/>
<text text-anchor="middle" x="267" y="-291" font-family="Helvetica,sans-Serif" font-size="10.00"> &#45;_list</text>
</g>
<!-- Node3 -->
<g id="node3" class="node">
<title>Node3</title>
<g id="a_node3"><a xlink:href="classStateManager.html" target="_top" xlink:title=" ">
<polygon fill="white" stroke="#666666" points="0,-419.5 0,-608.5 118,-608.5 118,-419.5 0,-419.5"/>
<text text-anchor="middle" x="59" y="-596.5" font-family="Helvetica,sans-Serif" font-size="10.00">StateManager</text>
<polyline fill="none" stroke="#666666" points="0,-589.5 118,-589.5"/>
<text text-anchor="start" x="8" y="-577.5" font-family="Helvetica,sans-Serif" font-size="10.00">&#45; connectionState</text>
<text text-anchor="start" x="8" y="-566.5" font-family="Helvetica,sans-Serif" font-size="10.00">&#45; listState</text>
<text text-anchor="start" x="8" y="-555.5" font-family="Helvetica,sans-Serif" font-size="10.00">&#45; projectState</text>
<text text-anchor="start" x="8" y="-544.5" font-family="Helvetica,sans-Serif" font-size="10.00">&#45; activeProject</text>
<polyline fill="none" stroke="#666666" points="0,-537.5 118,-537.5"/>
<text text-anchor="start" x="8" y="-525.5" font-family="Helvetica,sans-Serif" font-size="10.00">+ getConnectionState()</text>
<text text-anchor="start" x="8" y="-514.5" font-family="Helvetica,sans-Serif" font-size="10.00">+ setConnectionState()</text>
<text text-anchor="start" x="8" y="-503.5" font-family="Helvetica,sans-Serif" font-size="10.00">+ getProjectState()</text>
<text text-anchor="start" x="8" y="-492.5" font-family="Helvetica,sans-Serif" font-size="10.00">+ setProjectState()</text>
<text text-anchor="start" x="8" y="-481.5" font-family="Helvetica,sans-Serif" font-size="10.00">+ getListState()</text>
<text text-anchor="start" x="8" y="-470.5" font-family="Helvetica,sans-Serif" font-size="10.00">+ setListState()</text>
<text text-anchor="start" x="8" y="-459.5" font-family="Helvetica,sans-Serif" font-size="10.00">+ getActiveProject()</text>
<text text-anchor="start" x="8" y="-448.5" font-family="Helvetica,sans-Serif" font-size="10.00">+ setActiveProject()</text>
<text text-anchor="start" x="8" y="-437.5" font-family="Helvetica,sans-Serif" font-size="10.00">+ getInstance()</text>
<text text-anchor="start" x="8" y="-426.5" font-family="Helvetica,sans-Serif" font-size="10.00">&#45; StateManager()</text>
</a>
</g>
</g>
<!-- Node3&#45;&gt;Node1 -->
<g id="edge6" class="edge">
<title>Node3&#45;&gt;Node1</title>
<path fill="none" stroke="#404040" d="M50.24,-419.69C46.41,-360.77 44.48,-283.16 53,-215 54.43,-203.55 56.55,-191.65 59.02,-179.92"/>
<polygon fill="none" stroke="#404040" points="59.03,-179.88 56.44,-173.15 61.65,-168.16 64.24,-174.89 59.03,-179.88"/>
<text text-anchor="middle" x="86" y="-291" font-family="Helvetica,sans-Serif" font-size="10.00"> &#45;stateManager</text>
</g>
<!-- Node3&#45;&gt;Node2 -->
<g id="edge4" class="edge">
<title>Node3&#45;&gt;Node2</title>
<path fill="none" stroke="#404040" d="M111.52,-419.7C118.47,-407.36 125.57,-394.74 132.47,-382.49"/>
<polygon fill="none" stroke="#404040" points="132.41,-382.6 131.86,-375.41 138.29,-372.14 138.83,-379.33 132.41,-382.6"/>
<text text-anchor="middle" x="160" y="-393" font-family="Helvetica,sans-Serif" font-size="10.00"> &#45;stateManager</text>
</g>
<!-- Node3&#45;&gt;Node3 -->
<g id="edge5" class="edge">
<title>Node3&#45;&gt;Node3</title>
<path fill="none" stroke="#404040" d="M117.75,-535C128.48,-532.34 136,-525.34 136,-514 136,-507.44 133.49,-502.34 129.29,-498.68"/>
<polygon fill="none" stroke="#404040" points="129.33,-498.7 122.18,-499.64 118.56,-493.4 125.71,-492.46 129.33,-498.7"/>
<text text-anchor="middle" x="171.5" y="-511.5" font-family="Helvetica,sans-Serif" font-size="10.00"> &#45;_stateManager</text>
</g>
</g>
</svg>
