<?xml version="1.0" encoding="UTF-8" standalone="no"?>
<!DOCTYPE svg PUBLIC "-//W3C//DTD SVG 1.1//EN"
 "http://www.w3.org/Graphics/SVG/1.1/DTD/svg11.dtd">
<!-- Generated by graphviz version 8.0.1 (0)
 -->
<!-- Title: Communicator Pages: 1 -->
<svg width="289pt" height="595pt"
 viewBox="0.00 0.00 288.50 595.00" xmlns="http://www.w3.org/2000/svg" xmlns:xlink="http://www.w3.org/1999/xlink">
<g id="graph0" class="graph" transform="scale(1 1) rotate(0) translate(4 591)">
<title>Communicator</title>
<!-- Node1 -->
<g id="node1" class="node">
<title>Node1</title>
<g id="a_node1"><a xlink:title=" ">
<polygon fill="#999999" stroke="#666666" points="0,-0.5 0,-145.5 120,-145.5 120,-0.5 0,-0.5"/>
<text text-anchor="middle" x="60" y="-133.5" font-family="Helvetica,sans-Serif" font-size="10.00">Communicator</text>
<polyline fill="none" stroke="#666666" points="0,-126.5 120,-126.5"/>
<text text-anchor="start" x="8" y="-114.5" font-family="Helvetica,sans-Serif" font-size="10.00">&#45; arr</text>
<polyline fill="none" stroke="#666666" points="0,-107.5 120,-107.5"/>
<text text-anchor="start" x="8" y="-95.5" font-family="Helvetica,sans-Serif" font-size="10.00">+ initSerial()</text>
<text text-anchor="start" x="8" y="-84.5" font-family="Helvetica,sans-Serif" font-size="10.00">+ establishConnection()</text>
<text text-anchor="start" x="8" y="-73.5" font-family="Helvetica,sans-Serif" font-size="10.00">+ receiveList()</text>
<text text-anchor="start" x="8" y="-62.5" font-family="Helvetica,sans-Serif" font-size="10.00">+ launchProject()</text>
<text text-anchor="start" x="8" y="-51.5" font-family="Helvetica,sans-Serif" font-size="10.00">+ rebootProject()</text>
<text text-anchor="start" x="8" y="-40.5" font-family="Helvetica,sans-Serif" font-size="10.00">+ stopProject()</text>
<text text-anchor="start" x="8" y="-29.5" font-family="Helvetica,sans-Serif" font-size="10.00">+ getInstance()</text>
<text text-anchor="start" x="8" y="-18.5" font-family="Helvetica,sans-Serif" font-size="10.00">&#45; Communicator()</text>
<text text-anchor="start" x="8" y="-7.5" font-family="Helvetica,sans-Serif" font-size="10.00">&#45; processResponse()</text>
</a>
</g>
</g>
<!-- Node1&#45;&gt;Node1 -->
<g id="edge1" class="edge">
<title>Node1&#45;&gt;Node1</title>
<path fill="none" stroke="#404040" d="M119.85,-90.03C130.53,-87.82 138,-82.14 138,-73 138,-67.86 135.64,-63.81 131.67,-60.86"/>
<polygon fill="none" stroke="#404040" points="131.77,-60.9 124.69,-62.3 120.68,-56.31 127.75,-54.91 131.77,-60.9"/>
<text text-anchor="middle" x="174.5" y="-70.5" font-family="Helvetica,sans-Serif" font-size="10.00"> &#45;_communicator</text>
</g>
<!-- Node2 -->
<g id="node2" class="node">
<title>Node2</title>
<g id="a_node2"><a xlink:href="classStateManager.html" target="_top" xlink:title=" ">
<polygon fill="white" stroke="#666666" points="1,-397.5 1,-586.5 119,-586.5 119,-397.5 1,-397.5"/>
<text text-anchor="middle" x="60" y="-574.5" font-family="Helvetica,sans-Serif" font-size="10.00">StateManager</text>
<polyline fill="none" stroke="#666666" points="1,-567.5 119,-567.5"/>
<text text-anchor="start" x="9" y="-555.5" font-family="Helvetica,sans-Serif" font-size="10.00">&#45; connectionState</text>
<text text-anchor="start" x="9" y="-544.5" font-family="Helvetica,sans-Serif" font-size="10.00">&#45; listState</text>
<text text-anchor="start" x="9" y="-533.5" font-family="Helvetica,sans-Serif" font-size="10.00">&#45; projectState</text>
<text text-anchor="start" x="9" y="-522.5" font-family="Helvetica,sans-Serif" font-size="10.00">&#45; activeProject</text>
<polyline fill="none" stroke="#666666" points="1,-515.5 119,-515.5"/>
<text text-anchor="start" x="9" y="-503.5" font-family="Helvetica,sans-Serif" font-size="10.00">+ getConnectionState()</text>
<text text-anchor="start" x="9" y="-492.5" font-family="Helvetica,sans-Serif" font-size="10.00">+ setConnectionState()</text>
<text text-anchor="start" x="9" y="-481.5" font-family="Helvetica,sans-Serif" font-size="10.00">+ getProjectState()</text>
<text text-anchor="start" x="9" y="-470.5" font-family="Helvetica,sans-Serif" font-size="10.00">+ setProjectState()</text>
<text text-anchor="start" x="9" y="-459.5" font-family="Helvetica,sans-Serif" font-size="10.00">+ getListState()</text>
<text text-anchor="start" x="9" y="-448.5" font-family="Helvetica,sans-Serif" font-size="10.00">+ setListState()</text>
<text text-anchor="start" x="9" y="-437.5" font-family="Helvetica,sans-Serif" font-size="10.00">+ getActiveProject()</text>
<text text-anchor="start" x="9" y="-426.5" font-family="Helvetica,sans-Serif" font-size="10.00">+ setActiveProject()</text>
<text text-anchor="start" x="9" y="-415.5" font-family="Helvetica,sans-Serif" font-size="10.00">+ getInstance()</text>
<text text-anchor="start" x="9" y="-404.5" font-family="Helvetica,sans-Serif" font-size="10.00">&#45; StateManager()</text>
</a>
</g>
</g>
<!-- Node2&#45;&gt;Node1 -->
<g id="edge2" class="edge">
<title>Node2&#45;&gt;Node1</title>
<path fill="none" stroke="#404040" d="M55.47,-397.73C54.86,-381.81 54.33,-365.43 54,-350 52.52,-280.24 52.24,-262.76 54,-193 54.28,-181.81 54.71,-170.03 55.22,-158.41"/>
<polygon fill="none" stroke="#404040" points="55.22,-158.29 51.5,-152.11 55.77,-146.3 59.49,-152.48 55.22,-158.29"/>
<text text-anchor="middle" x="87" y="-269" font-family="Helvetica,sans-Serif" font-size="10.00"> &#45;stateManager</text>
</g>
<!-- Node2&#45;&gt;Node2 -->
<g id="edge3" class="edge">
<title>Node2&#45;&gt;Node2</title>
<path fill="none" stroke="#404040" d="M118.75,-513C129.48,-510.34 137,-503.34 137,-492 137,-485.44 134.49,-480.34 130.29,-476.68"/>
<polygon fill="none" stroke="#404040" points="130.33,-476.7 123.18,-477.64 119.56,-471.4 126.71,-470.46 130.33,-476.7"/>
<text text-anchor="middle" x="172.5" y="-489.5" font-family="Helvetica,sans-Serif" font-size="10.00"> &#45;_stateManager</text>
</g>
<!-- Node3 -->
<g id="node3" class="node">
<title>Node3</title>
<g id="a_node3"><a xlink:href="classList.html" target="_top" xlink:title=" ">
<polygon fill="white" stroke="#666666" points="128.5,-193.5 128.5,-349.5 237.5,-349.5 237.5,-193.5 128.5,-193.5"/>
<text text-anchor="middle" x="183" y="-337.5" font-family="Helvetica,sans-Serif" font-size="10.00">List</text>
<polyline fill="none" stroke="#666666" points="128.5,-330.5 237.5,-330.5"/>
<text text-anchor="start" x="136.5" y="-318.5" font-family="Helvetica,sans-Serif" font-size="10.00">&#45; size</text>
<text text-anchor="start" x="136.5" y="-307.5" font-family="Helvetica,sans-Serif" font-size="10.00">&#45; offset</text>
<text text-anchor="start" x="136.5" y="-296.5" font-family="Helvetica,sans-Serif" font-size="10.00">&#45; list</text>
<polyline fill="none" stroke="#666666" points="128.5,-289.5 237.5,-289.5"/>
<text text-anchor="start" x="136.5" y="-277.5" font-family="Helvetica,sans-Serif" font-size="10.00">+ setProjects()</text>
<text text-anchor="start" x="136.5" y="-266.5" font-family="Helvetica,sans-Serif" font-size="10.00">+ moveUp()</text>
<text text-anchor="start" x="136.5" y="-255.5" font-family="Helvetica,sans-Serif" font-size="10.00">+ moveDown()</text>
<text text-anchor="start" x="136.5" y="-244.5" font-family="Helvetica,sans-Serif" font-size="10.00">+ getFirstProject()</text>
<text text-anchor="start" x="136.5" y="-233.5" font-family="Helvetica,sans-Serif" font-size="10.00">+ getSecondProject()</text>
<text text-anchor="start" x="136.5" y="-222.5" font-family="Helvetica,sans-Serif" font-size="10.00">+ getInstance()</text>
<text text-anchor="start" x="136.5" y="-211.5" font-family="Helvetica,sans-Serif" font-size="10.00">&#45; List()</text>
<text text-anchor="start" x="136.5" y="-200.5" font-family="Helvetica,sans-Serif" font-size="10.00">&#45; getProject()</text>
</a>
</g>
</g>
<!-- Node2&#45;&gt;Node3 -->
<g id="edge6" class="edge">
<title>Node2&#45;&gt;Node3</title>
<path fill="none" stroke="#404040" d="M112.52,-397.7C119.47,-385.36 126.57,-372.74 133.47,-360.49"/>
<polygon fill="none" stroke="#404040" points="133.41,-360.6 132.86,-353.41 139.29,-350.14 139.83,-357.33 133.41,-360.6"/>
<text text-anchor="middle" x="161" y="-371" font-family="Helvetica,sans-Serif" font-size="10.00"> &#45;stateManager</text>
</g>
<!-- Node3&#45;&gt;Node1 -->
<g id="edge4" class="edge">
<title>Node3&#45;&gt;Node1</title>
<path fill="none" stroke="#404040" d="M134.92,-193.68C127.2,-181.36 119.2,-168.57 111.41,-156.13"/>
<polygon fill="none" stroke="#404040" points="111.48,-156.24 104.91,-153.28 105.11,-146.07 111.69,-149.04 111.48,-156.24"/>
<text text-anchor="middle" x="130.5" y="-167" font-family="Helvetica,sans-Serif" font-size="10.00"> &#45;list</text>
</g>
<!-- Node3&#45;&gt;Node3 -->
<g id="edge5" class="edge">
<title>Node3&#45;&gt;Node3</title>
<path fill="none" stroke="#404040" d="M237.38,-289.77C247.98,-287.65 255.5,-281.56 255.5,-271.5 255.5,-265.84 253.12,-261.44 249.15,-258.29"/>
<polygon fill="none" stroke="#404040" points="249.23,-258.33 242.14,-259.63 238.21,-253.58 245.3,-252.28 249.23,-258.33"/>
<text text-anchor="middle" x="268" y="-269" font-family="Helvetica,sans-Serif" font-size="10.00"> &#45;_list</text>
</g>
</g>
</svg>
