<?xml version="1.0" encoding="UTF-8" standalone="no"?>
<!DOCTYPE svg PUBLIC "-//W3C//DTD SVG 1.1//EN"
 "http://www.w3.org/Graphics/SVG/1.1/DTD/svg11.dtd">
<!-- Generated by graphviz version 8.0.1 (0)
 -->
<!-- Title: ButtonsProcessor Pages: 1 -->
<!--zoomable 766 -->
<svg id="main" version="1.1" xmlns="http://www.w3.org/2000/svg" xmlns:xlink="http://www.w3.org/1999/xlink" xml:space="preserve" onload="init(evt)">
<style type="text/css"><![CDATA[
.edge:hover path { stroke: red; }
.edge:hover polygon { stroke: red; fill: red; }
]]></style>
<script type="text/javascript"><![CDATA[
var edges = document.getElementsByTagName('g');
if (edges && edges.length) {
  for (var i=0;i<edges.length;i++) {
    if (edges[i].id.substr(0,4)=='edge') {
      edges[i].setAttribute('class','edge');
    }
  }
}
]]></script>
        <defs>
                <circle id="rim" cx="0" cy="0" r="7"/>
                <circle id="rim2" cx="0" cy="0" r="3.5"/>
                <g id="zoomPlus">
                        <use xlink:href="#rim" fill="#404040">
                                <set attributeName="fill" to="#808080" begin="zoomplus.mouseover" end="zoomplus.mouseout"/>
                        </use>
                        <path d="M-4,0h8M0,-4v8" fill="none" stroke="white" stroke-width="1.5" pointer-events="none"/>
                </g>
                <g id="zoomMin">
                        <use xlink:href="#rim" fill="#404040">
                                <set attributeName="fill" to="#808080" begin="zoomminus.mouseover" end="zoomminus.mouseout"/>
                        </use>
                        <path d="M-4,0h8" fill="none" stroke="white" stroke-width="1.5" pointer-events="none"/>
                </g>
                <g id="dirArrow">
                        <path fill="none" stroke="white" stroke-width="1.5" d="M0,-3.0v7 M-2.5,-0.5L0,-3.0L2.5,-0.5"/>
                </g>
               <g id="resetDef">
                       <use xlink:href="#rim2" fill="#404040">
                               <set attributeName="fill" to="#808080" begin="reset.mouseover" end="reset.mouseout"/>
                       </use>
               </g>
        </defs>

<script type="text/javascript">
var viewWidth = 518;
var viewHeight = 766;
var sectionId = 'dynsection-0';
</script>
<script xlink:href="svgpan.js"/>
<svg id="graph" class="graph">
<g id="viewport">
<title>ButtonsProcessor</title>
<!-- Node1 -->
<g id="node1" class="node">
<title>Node1</title>
<g id="a_node1"><a xlink:title=" ">
<polygon fill="#999999" stroke="#666666" points="251,-0.5 251,-101.5 385,-101.5 385,-0.5 251,-0.5"/>
<text text-anchor="middle" x="318" y="-89.5" font-family="Helvetica,sans-Serif" font-size="10.00">ButtonsProcessor</text>
<polyline fill="none" stroke="#666666" points="251,-82.5 385,-82.5"/>
<text text-anchor="middle" x="318" y="-70.5" font-family="Helvetica,sans-Serif" font-size="10.00"> </text>
<polyline fill="none" stroke="#666666" points="251,-63.5 385,-63.5"/>
<text text-anchor="start" x="259" y="-51.5" font-family="Helvetica,sans-Serif" font-size="10.00">+ ButtonsProcessor()</text>
<text text-anchor="start" x="259" y="-40.5" font-family="Helvetica,sans-Serif" font-size="10.00">+ void initButtons()</text>
<text text-anchor="start" x="259" y="-29.5" font-family="Helvetica,sans-Serif" font-size="10.00">+ void process()</text>
<text text-anchor="start" x="259" y="-18.5" font-family="Helvetica,sans-Serif" font-size="10.00">&#45; void processStartButton()</text>
<text text-anchor="start" x="259" y="-7.5" font-family="Helvetica,sans-Serif" font-size="10.00">&#45; void processStopButton()</text>
</a>
</g>
</g>
<!-- Node2 -->
<g id="node2" class="node">
<title>Node2</title>
<g id="a_node2"><a xlink:href="classStateManager.html" target="_top" xlink:title=" ">
<polygon fill="white" stroke="#666666" points="0,-568.5 0,-757.5 236,-757.5 236,-568.5 0,-568.5"/>
<text text-anchor="middle" x="118" y="-745.5" font-family="Helvetica,sans-Serif" font-size="10.00">StateManager</text>
<polyline fill="none" stroke="#666666" points="0,-738.5 236,-738.5"/>
<text text-anchor="start" x="8" y="-726.5" font-family="Helvetica,sans-Serif" font-size="10.00">&#45; State connectionState</text>
<text text-anchor="start" x="8" y="-715.5" font-family="Helvetica,sans-Serif" font-size="10.00">&#45; State listState</text>
<text text-anchor="start" x="8" y="-704.5" font-family="Helvetica,sans-Serif" font-size="10.00">&#45; State projectState</text>
<text text-anchor="start" x="8" y="-693.5" font-family="Helvetica,sans-Serif" font-size="10.00">&#45; String activeProject</text>
<polyline fill="none" stroke="#666666" points="0,-686.5 236,-686.5"/>
<text text-anchor="start" x="8" y="-674.5" font-family="Helvetica,sans-Serif" font-size="10.00">+ State getConnectionState()</text>
<text text-anchor="start" x="8" y="-663.5" font-family="Helvetica,sans-Serif" font-size="10.00">+ void setConnectionState(State connectionState)</text>
<text text-anchor="start" x="8" y="-652.5" font-family="Helvetica,sans-Serif" font-size="10.00">+ State getProjectState()</text>
<text text-anchor="start" x="8" y="-641.5" font-family="Helvetica,sans-Serif" font-size="10.00">+ void setProjectState(State projectState)</text>
<text text-anchor="start" x="8" y="-630.5" font-family="Helvetica,sans-Serif" font-size="10.00">+ State getListState()</text>
<text text-anchor="start" x="8" y="-619.5" font-family="Helvetica,sans-Serif" font-size="10.00">+ void setListState(State listState)</text>
<text text-anchor="start" x="8" y="-608.5" font-family="Helvetica,sans-Serif" font-size="10.00">+ String getActiveProject()</text>
<text text-anchor="start" x="8" y="-597.5" font-family="Helvetica,sans-Serif" font-size="10.00">+ void setActiveProject(String project)</text>
<text text-anchor="start" x="8" y="-586.5" font-family="Helvetica,sans-Serif" font-size="10.00">+ static StateManager * getInstance()</text>
<text text-anchor="start" x="8" y="-575.5" font-family="Helvetica,sans-Serif" font-size="10.00">&#45; StateManager()</text>
</a>
</g>
</g>
<!-- Node2&#45;&gt;Node1 -->
<g id="edge1" class="edge">
<title>Node2&#45;&gt;Node1</title>
<path fill="none" stroke="#404040" d="M71.25,-568.74C24.52,-460.96 -29.5,-282.71 53,-160 94.1,-98.86 176.5,-72.32 238.56,-60.8"/>
<polygon fill="none" stroke="#404040" points="238.37,-60.83 243.6,-55.87 250.19,-58.78 244.97,-63.75 238.37,-60.83"/>
<text text-anchor="middle" x="45" y="-338" font-family="Helvetica,sans-Serif" font-size="10.00"> &#45;stateManager</text>
</g>
<!-- Node2&#45;&gt;Node2 -->
<g id="edge2" class="edge">
<title>Node2&#45;&gt;Node2</title>
<path fill="none" stroke="#404040" d="M235.98,-680.81C247.03,-677.15 254,-671.22 254,-663 254,-658.25 251.67,-654.26 247.57,-651.03"/>
<polygon fill="none" stroke="#404040" points="247.5,-651 240.34,-651.87 236.78,-645.59 243.94,-644.73 247.5,-651"/>
<text text-anchor="middle" x="289.5" y="-660.5" font-family="Helvetica,sans-Serif" font-size="10.00"> &#45;_stateManager</text>
</g>
<!-- Node3 -->
<g id="node3" class="node">
<title>Node3</title>
<g id="a_node3"><a xlink:href="classCommunicator.html" target="_top" xlink:title=" ">
<polygon fill="white" stroke="#666666" points="62.5,-160.5 62.5,-316.5 245.5,-316.5 245.5,-160.5 62.5,-160.5"/>
<text text-anchor="middle" x="154" y="-304.5" font-family="Helvetica,sans-Serif" font-size="10.00">Communicator</text>
<polyline fill="none" stroke="#666666" points="62.5,-297.5 245.5,-297.5"/>
<text text-anchor="start" x="70.5" y="-285.5" font-family="Helvetica,sans-Serif" font-size="10.00">&#45; String arr</text>
<polyline fill="none" stroke="#666666" points="62.5,-278.5 245.5,-278.5"/>
<text text-anchor="start" x="70.5" y="-266.5" font-family="Helvetica,sans-Serif" font-size="10.00">+ void initSerial(unsigned long baud)</text>
<text text-anchor="start" x="70.5" y="-255.5" font-family="Helvetica,sans-Serif" font-size="10.00">+ void establishConnection()</text>
<text text-anchor="start" x="70.5" y="-244.5" font-family="Helvetica,sans-Serif" font-size="10.00">+ void checkState()</text>
<text text-anchor="start" x="70.5" y="-233.5" font-family="Helvetica,sans-Serif" font-size="10.00">+ void receiveList()</text>
<text text-anchor="start" x="70.5" y="-222.5" font-family="Helvetica,sans-Serif" font-size="10.00">+ int launchProject()</text>
<text text-anchor="start" x="70.5" y="-211.5" font-family="Helvetica,sans-Serif" font-size="10.00">+ int rebootProject()</text>
<text text-anchor="start" x="70.5" y="-200.5" font-family="Helvetica,sans-Serif" font-size="10.00">+ int stopProject()</text>
<text text-anchor="start" x="70.5" y="-189.5" font-family="Helvetica,sans-Serif" font-size="10.00">+ static Communicator * getInstance()</text>
<text text-anchor="start" x="70.5" y="-178.5" font-family="Helvetica,sans-Serif" font-size="10.00">&#45; Communicator()</text>
<text text-anchor="start" x="70.5" y="-167.5" font-family="Helvetica,sans-Serif" font-size="10.00">&#45; void processResponse()</text>
</a>
</g>
</g>
<!-- Node2&#45;&gt;Node3 -->
<g id="edge5" class="edge">
<title>Node2&#45;&gt;Node3</title>
<path fill="none" stroke="#404040" d="M116.44,-568.72C116.54,-509.8 118.65,-432.2 127,-364 128.39,-352.63 130.33,-340.77 132.52,-329.08"/>
<polygon fill="none" stroke="#404040" points="132.51,-329.15 129.74,-322.49 134.83,-317.38 137.59,-324.04 132.51,-329.15"/>
<text text-anchor="middle" x="160" y="-440" font-family="Helvetica,sans-Serif" font-size="10.00"> &#45;stateManager</text>
</g>
<!-- Node4 -->
<g id="node4" class="node">
<title>Node4</title>
<g id="a_node4"><a xlink:href="classList.html" target="_top" xlink:title=" ">
<polygon fill="white" stroke="#666666" points="202.5,-364.5 202.5,-520.5 389.5,-520.5 389.5,-364.5 202.5,-364.5"/>
<text text-anchor="middle" x="296" y="-508.5" font-family="Helvetica,sans-Serif" font-size="10.00">List</text>
<polyline fill="none" stroke="#666666" points="202.5,-501.5 389.5,-501.5"/>
<text text-anchor="start" x="210.5" y="-489.5" font-family="Helvetica,sans-Serif" font-size="10.00">&#45; int size</text>
<text text-anchor="start" x="210.5" y="-478.5" font-family="Helvetica,sans-Serif" font-size="10.00">&#45; int offset</text>
<text text-anchor="start" x="210.5" y="-467.5" font-family="Helvetica,sans-Serif" font-size="10.00">&#45; String list</text>
<polyline fill="none" stroke="#666666" points="202.5,-460.5 389.5,-460.5"/>
<text text-anchor="start" x="210.5" y="-448.5" font-family="Helvetica,sans-Serif" font-size="10.00">+ void setProjects(String list[], int size)</text>
<text text-anchor="start" x="210.5" y="-437.5" font-family="Helvetica,sans-Serif" font-size="10.00">+ void moveUp()</text>
<text text-anchor="start" x="210.5" y="-426.5" font-family="Helvetica,sans-Serif" font-size="10.00">+ void moveDown()</text>
<text text-anchor="start" x="210.5" y="-415.5" font-family="Helvetica,sans-Serif" font-size="10.00">+ String getFirstProject()</text>
<text text-anchor="start" x="210.5" y="-404.5" font-family="Helvetica,sans-Serif" font-size="10.00">+ String getSecondProject()</text>
<text text-anchor="start" x="210.5" y="-393.5" font-family="Helvetica,sans-Serif" font-size="10.00">+ static List * getInstance()</text>
<text text-anchor="start" x="210.5" y="-382.5" font-family="Helvetica,sans-Serif" font-size="10.00">&#45; List()</text>
<text text-anchor="start" x="210.5" y="-371.5" font-family="Helvetica,sans-Serif" font-size="10.00">&#45; String getProject(int index)</text>
</a>
</g>
</g>
<!-- Node2&#45;&gt;Node4 -->
<g id="edge8" class="edge">
<title>Node2&#45;&gt;Node4</title>
<path fill="none" stroke="#404040" d="M194,-568.7C204.37,-555.98 214.97,-542.96 225.24,-530.36"/>
<polygon fill="none" stroke="#404040" points="225.24,-530.36 225.93,-523.18 232.82,-521.06 232.13,-528.24 225.24,-530.36"/>
<text text-anchor="middle" x="251" y="-542" font-family="Helvetica,sans-Serif" font-size="10.00"> &#45;stateManager</text>
</g>
<!-- Node3&#45;&gt;Node1 -->
<g id="edge3" class="edge">
<title>Node3&#45;&gt;Node1</title>
<path fill="none" stroke="#404040" d="M221.89,-160.71C236.56,-144.12 251.85,-126.83 265.8,-111.04"/>
<polygon fill="none" stroke="#404040" points="265.76,-111.09 266.73,-103.95 273.7,-102.1 272.73,-109.25 265.76,-111.09"/>
<text text-anchor="middle" x="290" y="-128.5" font-family="Helvetica,sans-Serif" font-size="10.00"> &#45;communicator</text>
</g>
<!-- Node3&#45;&gt;Node3 -->
<g id="edge4" class="edge">
<title>Node3&#45;&gt;Node3</title>
<path fill="none" stroke="#404040" d="M245.45,-254.94C256.37,-251.95 263.5,-246.47 263.5,-238.5 263.5,-234.02 261.24,-230.32 257.33,-227.42"/>
<polygon fill="none" stroke="#404040" points="257.22,-227.37 250.1,-228.55 246.28,-222.43 253.39,-221.25 257.22,-227.37"/>
<text text-anchor="middle" x="300" y="-236" font-family="Helvetica,sans-Serif" font-size="10.00"> &#45;_communicator</text>
</g>
<!-- Node4&#45;&gt;Node1 -->
<g id="edge9" class="edge">
<title>Node4&#45;&gt;Node1</title>
<path fill="none" stroke="#404040" d="M332.18,-364.52C337.91,-349.1 342.95,-332.78 346,-317 359.24,-248.49 354.83,-229.22 346,-160 344.07,-144.84 340.66,-128.76 336.88,-113.78"/>
<polygon fill="none" stroke="#404040" points="336.93,-113.96 331.54,-109.18 333.87,-102.36 339.27,-107.14 336.93,-113.96"/>
<text text-anchor="middle" x="363.5" y="-236" font-family="Helvetica,sans-Serif" font-size="10.00"> &#45;list</text>
</g>
<!-- Node4&#45;&gt;Node3 -->
<g id="edge6" class="edge">
<title>Node4&#45;&gt;Node3</title>
<path fill="none" stroke="#404040" d="M241.91,-364.56C233.22,-352.19 224.16,-339.31 215.31,-326.72"/>
<polygon fill="none" stroke="#404040" points="215.36,-326.78 208.64,-324.18 208.46,-316.97 215.18,-319.58 215.36,-326.78"/>
<text text-anchor="middle" x="234.5" y="-338" font-family="Helvetica,sans-Serif" font-size="10.00"> &#45;list</text>
</g>
<!-- Node4&#45;&gt;Node4 -->
<g id="edge7" class="edge">
<title>Node4&#45;&gt;Node4</title>
<path fill="none" stroke="#404040" d="M389.13,-458.94C400.24,-455.95 407.5,-450.47 407.5,-442.5 407.5,-437.89 405.07,-434.12 400.88,-431.18"/>
<polygon fill="none" stroke="#404040" points="400.96,-431.21 393.86,-432.49 389.95,-426.42 397.05,-425.15 400.96,-431.21"/>
<text text-anchor="middle" x="420" y="-440" font-family="Helvetica,sans-Serif" font-size="10.00"> &#45;_list</text>
</g>
<!-- Node5 -->
<g id="node5" class="node">
<title>Node5</title>
<g id="a_node5"><a xlink:href="classButton.html" target="_top" xlink:title=" ">
<polygon fill="white" stroke="#666666" points="410.5,-171.5 410.5,-305.5 509.5,-305.5 509.5,-171.5 410.5,-171.5"/>
<text text-anchor="middle" x="460" y="-293.5" font-family="Helvetica,sans-Serif" font-size="10.00">Button</text>
<polyline fill="none" stroke="#666666" points="410.5,-286.5 509.5,-286.5"/>
<text text-anchor="start" x="418.5" y="-274.5" font-family="Helvetica,sans-Serif" font-size="10.00">&#45; int pin</text>
<text text-anchor="start" x="418.5" y="-263.5" font-family="Helvetica,sans-Serif" font-size="10.00">&#45; int currentValue</text>
<text text-anchor="start" x="418.5" y="-252.5" font-family="Helvetica,sans-Serif" font-size="10.00">&#45; int previousValue</text>
<text text-anchor="start" x="418.5" y="-241.5" font-family="Helvetica,sans-Serif" font-size="10.00">&#45; int previousState</text>
<text text-anchor="start" x="418.5" y="-230.5" font-family="Helvetica,sans-Serif" font-size="10.00">&#45; int state</text>
<polyline fill="none" stroke="#666666" points="410.5,-223.5 509.5,-223.5"/>
<text text-anchor="start" x="418.5" y="-211.5" font-family="Helvetica,sans-Serif" font-size="10.00">+ Button()</text>
<text text-anchor="start" x="418.5" y="-200.5" font-family="Helvetica,sans-Serif" font-size="10.00">+ void init(int pin)</text>
<text text-anchor="start" x="418.5" y="-189.5" font-family="Helvetica,sans-Serif" font-size="10.00">+ bool getState()</text>
<text text-anchor="start" x="418.5" y="-178.5" font-family="Helvetica,sans-Serif" font-size="10.00">+ bool isChanged()</text>
</a>
</g>
</g>
<!-- Node5&#45;&gt;Node1 -->
<g id="edge10" class="edge">
<title>Node5&#45;&gt;Node1</title>
<path fill="none" stroke="#404040" d="M422.86,-171.6C412.07,-154.26 399.75,-135.95 387,-120 384.56,-116.95 381.99,-113.88 379.34,-110.84"/>
<polygon fill="none" stroke="#404040" points="379.3,-110.8 372.31,-109.04 371.25,-101.9 378.25,-103.67 379.3,-110.8"/>
<text text-anchor="middle" x="429.5" y="-134" font-family="Helvetica,sans-Serif" font-size="10.00"> &#45;startButton</text>
<text text-anchor="middle" x="429.5" y="-123" font-family="Helvetica,sans-Serif" font-size="10.00">&#45;stopButton</text>
</g>
</g>
</svg>
        <g id="navigator" transform="translate(0 0)" fill="#404254">
                <rect fill="#f2f5e9" fill-opacity="0.5" stroke="#606060" stroke-width=".5" x="0" y="0" width="60" height="60"/>
                <use id="zoomplus" xlink:href="#zoomPlus" x="17" y="9" onmousedown="handleZoom(evt,'in')"/>
                <use id="zoomminus" xlink:href="#zoomMin" x="42" y="9" onmousedown="handleZoom(evt,'out')"/>
                <use id="reset" xlink:href="#resetDef" x="30" y="36" onmousedown="handleReset()"/>
                <g id="arrowUp" xlink:href="#dirArrow" transform="translate(30 24)" onmousedown="handlePan(0,-1)">
                  <use xlink:href="#rim" fill="#404040">
                        <set attributeName="fill" to="#808080" begin="arrowUp.mouseover" end="arrowUp.mouseout"/>
                  </use>
                  <path fill="none" stroke="white" stroke-width="1.5" d="M0,-3.0v7 M-2.5,-0.5L0,-3.0L2.5,-0.5"/>
                </g>
                <g id="arrowRight" xlink:href="#dirArrow" transform="rotate(90) translate(36 -43)" onmousedown="handlePan(1,0)">
                  <use xlink:href="#rim" fill="#404040">
                        <set attributeName="fill" to="#808080" begin="arrowRight.mouseover" end="arrowRight.mouseout"/>
                  </use>
                  <path fill="none" stroke="white" stroke-width="1.5" d="M0,-3.0v7 M-2.5,-0.5L0,-3.0L2.5,-0.5"/>
                </g>
                <g id="arrowDown" xlink:href="#dirArrow" transform="rotate(180) translate(-30 -48)" onmousedown="handlePan(0,1)">
                  <use xlink:href="#rim" fill="#404040">
                        <set attributeName="fill" to="#808080" begin="arrowDown.mouseover" end="arrowDown.mouseout"/>
                  </use>
                  <path fill="none" stroke="white" stroke-width="1.5" d="M0,-3.0v7 M-2.5,-0.5L0,-3.0L2.5,-0.5"/>
                </g>
                <g id="arrowLeft" xlink:href="#dirArrow" transform="rotate(270) translate(-36 17)" onmousedown="handlePan(-1,0)">
                  <use xlink:href="#rim" fill="#404040">
                        <set attributeName="fill" to="#808080" begin="arrowLeft.mouseover" end="arrowLeft.mouseout"/>
                  </use>
                  <path fill="none" stroke="white" stroke-width="1.5" d="M0,-3.0v7 M-2.5,-0.5L0,-3.0L2.5,-0.5"/>
                </g>
        </g>
        <svg viewBox="0 0 15 15" width="100%" height="30px" preserveAspectRatio="xMaxYMin meet">
         <g id="arrow_out" transform="scale(0.3 0.3)">
          <a xlink:href="classButtonsProcessor__coll__graph_org.svg" target="_base">
           <rect id="button" ry="5" rx="5" y="6" x="6" height="38" width="38"
                fill="#f2f5e9" fill-opacity="0.5" stroke="#606060" stroke-width="1.0"/>
           <path id="arrow"
             d="M 11.500037,31.436501 C 11.940474,20.09759 22.043105,11.32322 32.158766,21.979434 L 37.068811,17.246167 C 37.068811,17.246167 37.088388,32 37.088388,32 L 22.160133,31.978069 C 22.160133,31.978069 26.997745,27.140456 26.997745,27.140456 C 18.528582,18.264221 13.291696,25.230495 11.500037,31.436501 z"
             style="fill:#404040;"/>
          </a>
         </g>
        </svg>
</svg>
