<?xml version="1.0" encoding="UTF-8" standalone="no"?>
<!DOCTYPE svg PUBLIC "-//W3C//DTD SVG 1.1//EN"
 "http://www.w3.org/Graphics/SVG/1.1/DTD/svg11.dtd">
<!-- Generated by graphviz version 8.0.1 (0)
 -->
<!-- Title: JoyProcessor Pages: 1 -->
<svg width="333pt" height="551pt"
 viewBox="0.00 0.00 333.00 551.00" xmlns="http://www.w3.org/2000/svg" xmlns:xlink="http://www.w3.org/1999/xlink">
<g id="graph0" class="graph" transform="scale(1 1) rotate(0) translate(4 547)">
<title>JoyProcessor</title>
<!-- Node1 -->
<g id="node1" class="node">
<title>Node1</title>
<g id="a_node1"><a xlink:title=" ">
<polygon fill="#999999" stroke="#666666" points="70,-0.5 70,-101.5 166,-101.5 166,-0.5 70,-0.5"/>
<text text-anchor="middle" x="118" y="-89.5" font-family="Helvetica,sans-Serif" font-size="10.00">JoyProcessor</text>
<polyline fill="none" stroke="#666666" points="70,-82.5 166,-82.5"/>
<text text-anchor="start" x="78" y="-70.5" font-family="Helvetica,sans-Serif" font-size="10.00">&#45; int joy</text>
<text text-anchor="start" x="78" y="-59.5" font-family="Helvetica,sans-Serif" font-size="10.00">&#45; int previousJoy</text>
<polyline fill="none" stroke="#666666" points="70,-52.5 166,-52.5"/>
<text text-anchor="start" x="78" y="-40.5" font-family="Helvetica,sans-Serif" font-size="10.00">+ JoyProcessor()</text>
<text text-anchor="start" x="78" y="-29.5" font-family="Helvetica,sans-Serif" font-size="10.00">+ void process()</text>
<text text-anchor="start" x="78" y="-18.5" font-family="Helvetica,sans-Serif" font-size="10.00">&#45; int checkState()</text>
<text text-anchor="start" x="78" y="-7.5" font-family="Helvetica,sans-Serif" font-size="10.00">&#45; bool isChanged()</text>
</a>
</g>
</g>
<!-- Node2 -->
<g id="node2" class="node">
<title>Node2</title>
<g id="a_node2"><a xlink:href="classList.html" target="_top" xlink:title=" ">
<polygon fill="white" stroke="#666666" points="24.5,-149.5 24.5,-305.5 211.5,-305.5 211.5,-149.5 24.5,-149.5"/>
<text text-anchor="middle" x="118" y="-293.5" font-family="Helvetica,sans-Serif" font-size="10.00">List</text>
<polyline fill="none" stroke="#666666" points="24.5,-286.5 211.5,-286.5"/>
<text text-anchor="start" x="32.5" y="-274.5" font-family="Helvetica,sans-Serif" font-size="10.00">&#45; int size</text>
<text text-anchor="start" x="32.5" y="-263.5" font-family="Helvetica,sans-Serif" font-size="10.00">&#45; int offset</text>
<text text-anchor="start" x="32.5" y="-252.5" font-family="Helvetica,sans-Serif" font-size="10.00">&#45; String list</text>
<polyline fill="none" stroke="#666666" points="24.5,-245.5 211.5,-245.5"/>
<text text-anchor="start" x="32.5" y="-233.5" font-family="Helvetica,sans-Serif" font-size="10.00">+ void setProjects(String list[], int size)</text>
<text text-anchor="start" x="32.5" y="-222.5" font-family="Helvetica,sans-Serif" font-size="10.00">+ void moveUp()</text>
<text text-anchor="start" x="32.5" y="-211.5" font-family="Helvetica,sans-Serif" font-size="10.00">+ void moveDown()</text>
<text text-anchor="start" x="32.5" y="-200.5" font-family="Helvetica,sans-Serif" font-size="10.00">+ String getFirstProject()</text>
<text text-anchor="start" x="32.5" y="-189.5" font-family="Helvetica,sans-Serif" font-size="10.00">+ String getSecondProject()</text>
<text text-anchor="start" x="32.5" y="-178.5" font-family="Helvetica,sans-Serif" font-size="10.00">+ static List * getInstance()</text>
<text text-anchor="start" x="32.5" y="-167.5" font-family="Helvetica,sans-Serif" font-size="10.00">&#45; List()</text>
<text text-anchor="start" x="32.5" y="-156.5" font-family="Helvetica,sans-Serif" font-size="10.00">&#45; String getProject(int index)</text>
</a>
</g>
</g>
<!-- Node2&#45;&gt;Node1 -->
<g id="edge1" class="edge">
<title>Node2&#45;&gt;Node1</title>
<path fill="none" stroke="#404040" d="M118,-149.71C118,-137.82 118,-125.66 118,-114.14"/>
<polygon fill="none" stroke="#404040" points="118,-114.36 114,-108.36 118,-102.36 122,-108.36 118,-114.36"/>
<text text-anchor="middle" x="127.5" y="-123" font-family="Helvetica,sans-Serif" font-size="10.00"> &#45;list</text>
</g>
<!-- Node2&#45;&gt;Node2 -->
<g id="edge2" class="edge">
<title>Node2&#45;&gt;Node2</title>
<path fill="none" stroke="#404040" d="M211.13,-243.94C222.24,-240.95 229.5,-235.47 229.5,-227.5 229.5,-222.89 227.07,-219.12 222.88,-216.18"/>
<polygon fill="none" stroke="#404040" points="222.96,-216.21 215.86,-217.49 211.95,-211.42 219.05,-210.15 222.96,-216.21"/>
<text text-anchor="middle" x="242" y="-225" font-family="Helvetica,sans-Serif" font-size="10.00"> &#45;_list</text>
</g>
<!-- Node3 -->
<g id="node3" class="node">
<title>Node3</title>
<g id="a_node3"><a xlink:href="classStateManager.html" target="_top" xlink:title=" ">
<polygon fill="white" stroke="#666666" points="0,-353.5 0,-542.5 236,-542.5 236,-353.5 0,-353.5"/>
<text text-anchor="middle" x="118" y="-530.5" font-family="Helvetica,sans-Serif" font-size="10.00">StateManager</text>
<polyline fill="none" stroke="#666666" points="0,-523.5 236,-523.5"/>
<text text-anchor="start" x="8" y="-511.5" font-family="Helvetica,sans-Serif" font-size="10.00">&#45; State connectionState</text>
<text text-anchor="start" x="8" y="-500.5" font-family="Helvetica,sans-Serif" font-size="10.00">&#45; State listState</text>
<text text-anchor="start" x="8" y="-489.5" font-family="Helvetica,sans-Serif" font-size="10.00">&#45; State projectState</text>
<text text-anchor="start" x="8" y="-478.5" font-family="Helvetica,sans-Serif" font-size="10.00">&#45; String activeProject</text>
<polyline fill="none" stroke="#666666" points="0,-471.5 236,-471.5"/>
<text text-anchor="start" x="8" y="-459.5" font-family="Helvetica,sans-Serif" font-size="10.00">+ State getConnectionState()</text>
<text text-anchor="start" x="8" y="-448.5" font-family="Helvetica,sans-Serif" font-size="10.00">+ void setConnectionState(State connectionState)</text>
<text text-anchor="start" x="8" y="-437.5" font-family="Helvetica,sans-Serif" font-size="10.00">+ State getProjectState()</text>
<text text-anchor="start" x="8" y="-426.5" font-family="Helvetica,sans-Serif" font-size="10.00">+ void setProjectState(State projectState)</text>
<text text-anchor="start" x="8" y="-415.5" font-family="Helvetica,sans-Serif" font-size="10.00">+ State getListState()</text>
<text text-anchor="start" x="8" y="-404.5" font-family="Helvetica,sans-Serif" font-size="10.00">+ void setListState(State listState)</text>
<text text-anchor="start" x="8" y="-393.5" font-family="Helvetica,sans-Serif" font-size="10.00">+ String getActiveProject()</text>
<text text-anchor="start" x="8" y="-382.5" font-family="Helvetica,sans-Serif" font-size="10.00">+ void setActiveProject(String project)</text>
<text text-anchor="start" x="8" y="-371.5" font-family="Helvetica,sans-Serif" font-size="10.00">+ static StateManager * getInstance()</text>
<text text-anchor="start" x="8" y="-360.5" font-family="Helvetica,sans-Serif" font-size="10.00">&#45; StateManager()</text>
</a>
</g>
</g>
<!-- Node3&#45;&gt;Node2 -->
<g id="edge3" class="edge">
<title>Node3&#45;&gt;Node2</title>
<path fill="none" stroke="#404040" d="M118,-353.7C118,-341.99 118,-330.02 118,-318.36"/>
<polygon fill="none" stroke="#404040" points="118,-318.26 114,-312.26 118,-306.26 122,-312.26 118,-318.26"/>
<text text-anchor="middle" x="151" y="-327" font-family="Helvetica,sans-Serif" font-size="10.00"> &#45;stateManager</text>
</g>
<!-- Node3&#45;&gt;Node3 -->
<g id="edge4" class="edge">
<title>Node3&#45;&gt;Node3</title>
<path fill="none" stroke="#404040" d="M235.98,-465.81C247.03,-462.15 254,-456.22 254,-448 254,-443.25 251.67,-439.26 247.57,-436.03"/>
<polygon fill="none" stroke="#404040" points="247.5,-436 240.34,-436.87 236.78,-430.59 243.94,-429.73 247.5,-436"/>
<text text-anchor="middle" x="289.5" y="-445.5" font-family="Helvetica,sans-Serif" font-size="10.00"> &#45;_stateManager</text>
</g>
</g>
</svg>
