<?xml version="1.0" encoding="UTF-8" standalone="no"?>
<!DOCTYPE svg PUBLIC "-//W3C//DTD SVG 1.1//EN"
 "http://www.w3.org/Graphics/SVG/1.1/DTD/svg11.dtd">
<!-- Generated by graphviz version 8.0.1 (0)
 -->
<!-- Title: ButtonsProcessor Pages: 1 -->
<svg width="423pt" height="755pt"
 viewBox="0.00 0.00 422.96 755.00" xmlns="http://www.w3.org/2000/svg" xmlns:xlink="http://www.w3.org/1999/xlink">
<g id="graph0" class="graph" transform="scale(1 1) rotate(0) translate(4 751)">
<title>ButtonsProcessor</title>
<!-- Node1 -->
<g id="node1" class="node">
<title>Node1</title>
<g id="a_node1"><a xlink:title=" ">
<polygon fill="#999999" stroke="#666666" points="190.96,-0.5 190.96,-101.5 303.96,-101.5 303.96,-0.5 190.96,-0.5"/>
<text text-anchor="middle" x="247.46" y="-89.5" font-family="Helvetica,sans-Serif" font-size="10.00">ButtonsProcessor</text>
<polyline fill="none" stroke="#666666" points="190.96,-82.5 303.96,-82.5"/>
<text text-anchor="middle" x="247.46" y="-70.5" font-family="Helvetica,sans-Serif" font-size="10.00"> </text>
<polyline fill="none" stroke="#666666" points="190.96,-63.5 303.96,-63.5"/>
<text text-anchor="start" x="198.96" y="-51.5" font-family="Helvetica,sans-Serif" font-size="10.00">+ ButtonsProcessor()</text>
<text text-anchor="start" x="198.96" y="-40.5" font-family="Helvetica,sans-Serif" font-size="10.00">+ initButtons()</text>
<text text-anchor="start" x="198.96" y="-29.5" font-family="Helvetica,sans-Serif" font-size="10.00">+ process()</text>
<text text-anchor="start" x="198.96" y="-18.5" font-family="Helvetica,sans-Serif" font-size="10.00">&#45; processStartButton()</text>
<text text-anchor="start" x="198.96" y="-7.5" font-family="Helvetica,sans-Serif" font-size="10.00">&#45; processStopButton()</text>
</a>
</g>
</g>
<!-- Node2 -->
<g id="node2" class="node">
<title>Node2</title>
<g id="a_node2"><a xlink:href="classStateManager.html" target="_top" xlink:title=" ">
<polygon fill="white" stroke="#666666" points="44.46,-557.5 44.46,-746.5 162.46,-746.5 162.46,-557.5 44.46,-557.5"/>
<text text-anchor="middle" x="103.46" y="-734.5" font-family="Helvetica,sans-Serif" font-size="10.00">StateManager</text>
<polyline fill="none" stroke="#666666" points="44.46,-727.5 162.46,-727.5"/>
<text text-anchor="start" x="52.46" y="-715.5" font-family="Helvetica,sans-Serif" font-size="10.00">&#45; connectionState</text>
<text text-anchor="start" x="52.46" y="-704.5" font-family="Helvetica,sans-Serif" font-size="10.00">&#45; listState</text>
<text text-anchor="start" x="52.46" y="-693.5" font-family="Helvetica,sans-Serif" font-size="10.00">&#45; projectState</text>
<text text-anchor="start" x="52.46" y="-682.5" font-family="Helvetica,sans-Serif" font-size="10.00">&#45; activeProject</text>
<polyline fill="none" stroke="#666666" points="44.46,-675.5 162.46,-675.5"/>
<text text-anchor="start" x="52.46" y="-663.5" font-family="Helvetica,sans-Serif" font-size="10.00">+ getConnectionState()</text>
<text text-anchor="start" x="52.46" y="-652.5" font-family="Helvetica,sans-Serif" font-size="10.00">+ setConnectionState()</text>
<text text-anchor="start" x="52.46" y="-641.5" font-family="Helvetica,sans-Serif" font-size="10.00">+ getProjectState()</text>
<text text-anchor="start" x="52.46" y="-630.5" font-family="Helvetica,sans-Serif" font-size="10.00">+ setProjectState()</text>
<text text-anchor="start" x="52.46" y="-619.5" font-family="Helvetica,sans-Serif" font-size="10.00">+ getListState()</text>
<text text-anchor="start" x="52.46" y="-608.5" font-family="Helvetica,sans-Serif" font-size="10.00">+ setListState()</text>
<text text-anchor="start" x="52.46" y="-597.5" font-family="Helvetica,sans-Serif" font-size="10.00">+ getActiveProject()</text>
<text text-anchor="start" x="52.46" y="-586.5" font-family="Helvetica,sans-Serif" font-size="10.00">+ setActiveProject()</text>
<text text-anchor="start" x="52.46" y="-575.5" font-family="Helvetica,sans-Serif" font-size="10.00">+ getInstance()</text>
<text text-anchor="start" x="52.46" y="-564.5" font-family="Helvetica,sans-Serif" font-size="10.00">&#45; StateManager()</text>
</a>
</g>
</g>
<!-- Node2&#45;&gt;Node1 -->
<g id="edge1" class="edge">
<title>Node2&#45;&gt;Node1</title>
<path fill="none" stroke="#404040" d="M57.75,-557.68C13.64,-453.04 -36.36,-282.06 38.46,-160 68.9,-110.35 130.27,-82.5 178.67,-67.58"/>
<polygon fill="none" stroke="#404040" points="178.61,-67.59 183.24,-62.07 190.12,-64.22 185.49,-69.74 178.61,-67.59"/>
<text text-anchor="middle" x="34.46" y="-327" font-family="Helvetica,sans-Serif" font-size="10.00"> &#45;stateManager</text>
</g>
<!-- Node2&#45;&gt;Node2 -->
<g id="edge2" class="edge">
<title>Node2&#45;&gt;Node2</title>
<path fill="none" stroke="#404040" d="M162.22,-673C172.94,-670.34 180.46,-663.34 180.46,-652 180.46,-645.44 177.95,-640.34 173.76,-636.68"/>
<polygon fill="none" stroke="#404040" points="173.79,-636.7 166.64,-637.64 163.02,-631.4 170.17,-630.46 173.79,-636.7"/>
<text text-anchor="middle" x="215.96" y="-649.5" font-family="Helvetica,sans-Serif" font-size="10.00"> &#45;_stateManager</text>
</g>
<!-- Node3 -->
<g id="node3" class="node">
<title>Node3</title>
<g id="a_node3"><a xlink:href="classCommunicator.html" target="_top" xlink:title=" ">
<polygon fill="white" stroke="#666666" points="47.46,-160.5 47.46,-305.5 167.46,-305.5 167.46,-160.5 47.46,-160.5"/>
<text text-anchor="middle" x="107.46" y="-293.5" font-family="Helvetica,sans-Serif" font-size="10.00">Communicator</text>
<polyline fill="none" stroke="#666666" points="47.46,-286.5 167.46,-286.5"/>
<text text-anchor="start" x="55.46" y="-274.5" font-family="Helvetica,sans-Serif" font-size="10.00">&#45; arr</text>
<polyline fill="none" stroke="#666666" points="47.46,-267.5 167.46,-267.5"/>
<text text-anchor="start" x="55.46" y="-255.5" font-family="Helvetica,sans-Serif" font-size="10.00">+ initSerial()</text>
<text text-anchor="start" x="55.46" y="-244.5" font-family="Helvetica,sans-Serif" font-size="10.00">+ establishConnection()</text>
<text text-anchor="start" x="55.46" y="-233.5" font-family="Helvetica,sans-Serif" font-size="10.00">+ receiveList()</text>
<text text-anchor="start" x="55.46" y="-222.5" font-family="Helvetica,sans-Serif" font-size="10.00">+ launchProject()</text>
<text text-anchor="start" x="55.46" y="-211.5" font-family="Helvetica,sans-Serif" font-size="10.00">+ rebootProject()</text>
<text text-anchor="start" x="55.46" y="-200.5" font-family="Helvetica,sans-Serif" font-size="10.00">+ stopProject()</text>
<text text-anchor="start" x="55.46" y="-189.5" font-family="Helvetica,sans-Serif" font-size="10.00">+ getInstance()</text>
<text text-anchor="start" x="55.46" y="-178.5" font-family="Helvetica,sans-Serif" font-size="10.00">&#45; Communicator()</text>
<text text-anchor="start" x="55.46" y="-167.5" font-family="Helvetica,sans-Serif" font-size="10.00">&#45; processResponse()</text>
</a>
</g>
</g>
<!-- Node2&#45;&gt;Node3 -->
<g id="edge5" class="edge">
<title>Node2&#45;&gt;Node3</title>
<path fill="none" stroke="#404040" d="M104.36,-557.68C105.05,-485.95 105.99,-387.73 106.65,-318.35"/>
<polygon fill="none" stroke="#404040" points="106.66,-318.21 102.71,-312.17 106.77,-306.21 110.71,-312.25 106.66,-318.21"/>
<text text-anchor="middle" x="139.46" y="-429" font-family="Helvetica,sans-Serif" font-size="10.00"> &#45;stateManager</text>
</g>
<!-- Node4 -->
<g id="node4" class="node">
<title>Node4</title>
<g id="a_node4"><a xlink:href="classList.html" target="_top" xlink:title=" ">
<polygon fill="white" stroke="#666666" points="187.96,-353.5 187.96,-509.5 296.96,-509.5 296.96,-353.5 187.96,-353.5"/>
<text text-anchor="middle" x="242.46" y="-497.5" font-family="Helvetica,sans-Serif" font-size="10.00">List</text>
<polyline fill="none" stroke="#666666" points="187.96,-490.5 296.96,-490.5"/>
<text text-anchor="start" x="195.96" y="-478.5" font-family="Helvetica,sans-Serif" font-size="10.00">&#45; size</text>
<text text-anchor="start" x="195.96" y="-467.5" font-family="Helvetica,sans-Serif" font-size="10.00">&#45; offset</text>
<text text-anchor="start" x="195.96" y="-456.5" font-family="Helvetica,sans-Serif" font-size="10.00">&#45; list</text>
<polyline fill="none" stroke="#666666" points="187.96,-449.5 296.96,-449.5"/>
<text text-anchor="start" x="195.96" y="-437.5" font-family="Helvetica,sans-Serif" font-size="10.00">+ setProjects()</text>
<text text-anchor="start" x="195.96" y="-426.5" font-family="Helvetica,sans-Serif" font-size="10.00">+ moveUp()</text>
<text text-anchor="start" x="195.96" y="-415.5" font-family="Helvetica,sans-Serif" font-size="10.00">+ moveDown()</text>
<text text-anchor="start" x="195.96" y="-404.5" font-family="Helvetica,sans-Serif" font-size="10.00">+ getFirstProject()</text>
<text text-anchor="start" x="195.96" y="-393.5" font-family="Helvetica,sans-Serif" font-size="10.00">+ getSecondProject()</text>
<text text-anchor="start" x="195.96" y="-382.5" font-family="Helvetica,sans-Serif" font-size="10.00">+ getInstance()</text>
<text text-anchor="start" x="195.96" y="-371.5" font-family="Helvetica,sans-Serif" font-size="10.00">&#45; List()</text>
<text text-anchor="start" x="195.96" y="-360.5" font-family="Helvetica,sans-Serif" font-size="10.00">&#45; getProject()</text>
</a>
</g>
</g>
<!-- Node2&#45;&gt;Node4 -->
<g id="edge8" class="edge">
<title>Node2&#45;&gt;Node4</title>
<path fill="none" stroke="#404040" d="M162.41,-558.34C170.42,-545.74 178.63,-532.85 186.58,-520.34"/>
<polygon fill="none" stroke="#404040" points="186.58,-520.35 186.42,-513.14 193.02,-510.23 193.17,-517.44 186.58,-520.35"/>
<text text-anchor="middle" x="214.46" y="-531" font-family="Helvetica,sans-Serif" font-size="10.00"> &#45;stateManager</text>
</g>
<!-- Node3&#45;&gt;Node1 -->
<g id="edge3" class="edge">
<title>Node3&#45;&gt;Node1</title>
<path fill="none" stroke="#404040" d="M163,-160.6C175.65,-144.34 188.96,-127.22 201.17,-111.52"/>
<polygon fill="none" stroke="#404040" points="201.1,-111.6 201.63,-104.41 208.47,-102.13 207.95,-109.32 201.1,-111.6"/>
<text text-anchor="middle" x="228.46" y="-128.5" font-family="Helvetica,sans-Serif" font-size="10.00"> &#45;communicator</text>
</g>
<!-- Node3&#45;&gt;Node3 -->
<g id="edge4" class="edge">
<title>Node3&#45;&gt;Node3</title>
<path fill="none" stroke="#404040" d="M167.31,-250.03C178,-247.82 185.46,-242.14 185.46,-233 185.46,-227.86 183.1,-223.81 179.13,-220.86"/>
<polygon fill="none" stroke="#404040" points="179.23,-220.9 172.16,-222.3 168.14,-216.31 175.22,-214.91 179.23,-220.9"/>
<text text-anchor="middle" x="221.96" y="-230.5" font-family="Helvetica,sans-Serif" font-size="10.00"> &#45;_communicator</text>
</g>
<!-- Node4&#45;&gt;Node1 -->
<g id="edge9" class="edge">
<title>Node4&#45;&gt;Node1</title>
<path fill="none" stroke="#404040" d="M260.34,-353.82C263.3,-338.09 265.92,-321.58 267.46,-306 275.64,-223.74 278.71,-201.76 266.46,-120 266.17,-118.01 265.83,-116 265.46,-113.97"/>
<polygon fill="none" stroke="#404040" points="265.48,-114.08 260.32,-109.04 263,-102.34 268.15,-107.38 265.48,-114.08"/>
<text text-anchor="middle" x="283.96" y="-230.5" font-family="Helvetica,sans-Serif" font-size="10.00"> &#45;list</text>
</g>
<!-- Node4&#45;&gt;Node3 -->
<g id="edge6" class="edge">
<title>Node4&#45;&gt;Node3</title>
<path fill="none" stroke="#404040" d="M189.69,-353.68C181.14,-341.24 172.26,-328.31 163.63,-315.75"/>
<polygon fill="none" stroke="#404040" points="163.76,-315.94 157.07,-313.26 156.96,-306.05 163.66,-308.73 163.76,-315.94"/>
<text text-anchor="middle" x="184.96" y="-327" font-family="Helvetica,sans-Serif" font-size="10.00"> &#45;list</text>
</g>
<!-- Node4&#45;&gt;Node4 -->
<g id="edge7" class="edge">
<title>Node4&#45;&gt;Node4</title>
<path fill="none" stroke="#404040" d="M296.85,-449.77C307.44,-447.65 314.96,-441.56 314.96,-431.5 314.96,-425.84 312.58,-421.44 308.62,-418.29"/>
<polygon fill="none" stroke="#404040" points="308.7,-418.33 301.6,-419.63 297.67,-413.58 304.77,-412.28 308.7,-418.33"/>
<text text-anchor="middle" x="327.46" y="-429" font-family="Helvetica,sans-Serif" font-size="10.00"> &#45;_list</text>
</g>
<!-- Node5 -->
<g id="node5" class="node">
<title>Node5</title>
<g id="a_node5"><a xlink:href="classButton.html" target="_top" xlink:title=" ">
<polygon fill="white" stroke="#666666" points="331.96,-166 331.96,-300 414.96,-300 414.96,-166 331.96,-166"/>
<text text-anchor="middle" x="373.46" y="-288" font-family="Helvetica,sans-Serif" font-size="10.00">Button</text>
<polyline fill="none" stroke="#666666" points="331.96,-281 414.96,-281"/>
<text text-anchor="start" x="339.96" y="-269" font-family="Helvetica,sans-Serif" font-size="10.00">&#45; pin</text>
<text text-anchor="start" x="339.96" y="-258" font-family="Helvetica,sans-Serif" font-size="10.00">&#45; currentValue</text>
<text text-anchor="start" x="339.96" y="-247" font-family="Helvetica,sans-Serif" font-size="10.00">&#45; previousValue</text>
<text text-anchor="start" x="339.96" y="-236" font-family="Helvetica,sans-Serif" font-size="10.00">&#45; previousState</text>
<text text-anchor="start" x="339.96" y="-225" font-family="Helvetica,sans-Serif" font-size="10.00">&#45; state</text>
<polyline fill="none" stroke="#666666" points="331.96,-218 414.96,-218"/>
<text text-anchor="start" x="339.96" y="-206" font-family="Helvetica,sans-Serif" font-size="10.00">+ Button()</text>
<text text-anchor="start" x="339.96" y="-195" font-family="Helvetica,sans-Serif" font-size="10.00">+ init()</text>
<text text-anchor="start" x="339.96" y="-184" font-family="Helvetica,sans-Serif" font-size="10.00">+ getState()</text>
<text text-anchor="start" x="339.96" y="-173" font-family="Helvetica,sans-Serif" font-size="10.00">+ isChanged()</text>
</a>
</g>
</g>
<!-- Node5&#45;&gt;Node1 -->
<g id="edge10" class="edge">
<title>Node5&#45;&gt;Node1</title>
<path fill="none" stroke="#404040" d="M338.19,-166.02C329.09,-150.53 318.91,-134.37 308.46,-120 306.32,-117.05 304.07,-114.09 301.76,-111.13"/>
<polygon fill="none" stroke="#404040" points="301.78,-111.17 294.9,-109.03 294.22,-101.85 301.11,-103.99 301.78,-111.17"/>
<text text-anchor="middle" x="348.96" y="-134" font-family="Helvetica,sans-Serif" font-size="10.00"> &#45;startButton</text>
<text text-anchor="middle" x="348.96" y="-123" font-family="Helvetica,sans-Serif" font-size="10.00">&#45;stopButton</text>
</g>
</g>
</svg>
