<?xml version="1.0" encoding="UTF-8" standalone="no"?>
<!DOCTYPE svg PUBLIC "-//W3C//DTD SVG 1.1//EN"
 "http://www.w3.org/Graphics/SVG/1.1/DTD/svg11.dtd">
<!-- Generated by graphviz version 8.0.1 (0)
 -->
<!-- Title: List Pages: 1 -->
<svg width="215pt" height="402pt"
 viewBox="0.00 0.00 215.00 402.00" xmlns="http://www.w3.org/2000/svg" xmlns:xlink="http://www.w3.org/1999/xlink">
<g id="graph0" class="graph" transform="scale(1 1) rotate(0) translate(4 398)">
<title>List</title>
<!-- Node1 -->
<g id="node1" class="node">
<title>Node1</title>
<g id="a_node1"><a xlink:title=" ">
<polygon fill="#999999" stroke="#666666" points="4.5,-0.5 4.5,-156.5 113.5,-156.5 113.5,-0.5 4.5,-0.5"/>
<text text-anchor="middle" x="59" y="-144.5" font-family="Helvetica,sans-Serif" font-size="10.00">List</text>
<polyline fill="none" stroke="#666666" points="4.5,-137.5 113.5,-137.5"/>
<text text-anchor="start" x="12.5" y="-125.5" font-family="Helvetica,sans-Serif" font-size="10.00">&#45; size</text>
<text text-anchor="start" x="12.5" y="-114.5" font-family="Helvetica,sans-Serif" font-size="10.00">&#45; offset</text>
<text text-anchor="start" x="12.5" y="-103.5" font-family="Helvetica,sans-Serif" font-size="10.00">&#45; list</text>
<polyline fill="none" stroke="#666666" points="4.5,-96.5 113.5,-96.5"/>
<text text-anchor="start" x="12.5" y="-84.5" font-family="Helvetica,sans-Serif" font-size="10.00">+ setProjects()</text>
<text text-anchor="start" x="12.5" y="-73.5" font-family="Helvetica,sans-Serif" font-size="10.00">+ moveUp()</text>
<text text-anchor="start" x="12.5" y="-62.5" font-family="Helvetica,sans-Serif" font-size="10.00">+ moveDown()</text>
<text text-anchor="start" x="12.5" y="-51.5" font-family="Helvetica,sans-Serif" font-size="10.00">+ getFirstProject()</text>
<text text-anchor="start" x="12.5" y="-40.5" font-family="Helvetica,sans-Serif" font-size="10.00">+ getSecondProject()</text>
<text text-anchor="start" x="12.5" y="-29.5" font-family="Helvetica,sans-Serif" font-size="10.00">+ getInstance()</text>
<text text-anchor="start" x="12.5" y="-18.5" font-family="Helvetica,sans-Serif" font-size="10.00">&#45; List()</text>
<text text-anchor="start" x="12.5" y="-7.5" font-family="Helvetica,sans-Serif" font-size="10.00">&#45; getProject()</text>
</a>
</g>
</g>
<!-- Node1&#45;&gt;Node1 -->
<g id="edge1" class="edge">
<title>Node1&#45;&gt;Node1</title>
<path fill="none" stroke="#404040" d="M113.38,-96.77C123.98,-94.65 131.5,-88.56 131.5,-78.5 131.5,-72.84 129.12,-68.44 125.15,-65.29"/>
<polygon fill="none" stroke="#404040" points="125.23,-65.33 118.14,-66.63 114.21,-60.58 121.3,-59.28 125.23,-65.33"/>
<text text-anchor="middle" x="144" y="-76" font-family="Helvetica,sans-Serif" font-size="10.00"> &#45;_list</text>
</g>
<!-- Node2 -->
<g id="node2" class="node">
<title>Node2</title>
<g id="a_node2"><a xlink:href="classStateManager.html" target="_top" xlink:title=" ">
<polygon fill="white" stroke="#666666" points="0,-204.5 0,-393.5 118,-393.5 118,-204.5 0,-204.5"/>
<text text-anchor="middle" x="59" y="-381.5" font-family="Helvetica,sans-Serif" font-size="10.00">StateManager</text>
<polyline fill="none" stroke="#666666" points="0,-374.5 118,-374.5"/>
<text text-anchor="start" x="8" y="-362.5" font-family="Helvetica,sans-Serif" font-size="10.00">&#45; connectionState</text>
<text text-anchor="start" x="8" y="-351.5" font-family="Helvetica,sans-Serif" font-size="10.00">&#45; listState</text>
<text text-anchor="start" x="8" y="-340.5" font-family="Helvetica,sans-Serif" font-size="10.00">&#45; projectState</text>
<text text-anchor="start" x="8" y="-329.5" font-family="Helvetica,sans-Serif" font-size="10.00">&#45; activeProject</text>
<polyline fill="none" stroke="#666666" points="0,-322.5 118,-322.5"/>
<text text-anchor="start" x="8" y="-310.5" font-family="Helvetica,sans-Serif" font-size="10.00">+ getConnectionState()</text>
<text text-anchor="start" x="8" y="-299.5" font-family="Helvetica,sans-Serif" font-size="10.00">+ setConnectionState()</text>
<text text-anchor="start" x="8" y="-288.5" font-family="Helvetica,sans-Serif" font-size="10.00">+ getProjectState()</text>
<text text-anchor="start" x="8" y="-277.5" font-family="Helvetica,sans-Serif" font-size="10.00">+ setProjectState()</text>
<text text-anchor="start" x="8" y="-266.5" font-family="Helvetica,sans-Serif" font-size="10.00">+ getListState()</text>
<text text-anchor="start" x="8" y="-255.5" font-family="Helvetica,sans-Serif" font-size="10.00">+ setListState()</text>
<text text-anchor="start" x="8" y="-244.5" font-family="Helvetica,sans-Serif" font-size="10.00">+ getActiveProject()</text>
<text text-anchor="start" x="8" y="-233.5" font-family="Helvetica,sans-Serif" font-size="10.00">+ setActiveProject()</text>
<text text-anchor="start" x="8" y="-222.5" font-family="Helvetica,sans-Serif" font-size="10.00">+ getInstance()</text>
<text text-anchor="start" x="8" y="-211.5" font-family="Helvetica,sans-Serif" font-size="10.00">&#45; StateManager()</text>
</a>
</g>
</g>
<!-- Node2&#45;&gt;Node1 -->
<g id="edge2" class="edge">
<title>Node2&#45;&gt;Node1</title>
<path fill="none" stroke="#404040" d="M59,-204.7C59,-192.99 59,-181.02 59,-169.36"/>
<polygon fill="none" stroke="#404040" points="59,-169.26 55,-163.26 59,-157.26 63,-163.26 59,-169.26"/>
<text text-anchor="middle" x="92" y="-178" font-family="Helvetica,sans-Serif" font-size="10.00"> &#45;stateManager</text>
</g>
<!-- Node2&#45;&gt;Node2 -->
<g id="edge3" class="edge">
<title>Node2&#45;&gt;Node2</title>
<path fill="none" stroke="#404040" d="M117.75,-320C128.48,-317.34 136,-310.34 136,-299 136,-292.44 133.49,-287.34 129.29,-283.68"/>
<polygon fill="none" stroke="#404040" points="129.33,-283.7 122.18,-284.64 118.56,-278.4 125.71,-277.46 129.33,-283.7"/>
<text text-anchor="middle" x="171.5" y="-296.5" font-family="Helvetica,sans-Serif" font-size="10.00"> &#45;_stateManager</text>
</g>
</g>
</svg>
