<?xml version="1.0" encoding="UTF-8" standalone="no"?>
<!DOCTYPE svg PUBLIC "-//W3C//DTD SVG 1.1//EN"
 "http://www.w3.org/Graphics/SVG/1.1/DTD/svg11.dtd">
<!-- Generated by graphviz version 8.0.1 (0)
 -->
<!-- Title: Communicator Pages: 1 -->
<svg width="425pt" height="606pt"
 viewBox="0.00 0.00 424.50 606.00" xmlns="http://www.w3.org/2000/svg" xmlns:xlink="http://www.w3.org/1999/xlink">
<g id="graph0" class="graph" transform="scale(1 1) rotate(0) translate(4 602)">
<title>Communicator</title>
<!-- Node1 -->
<g id="node1" class="node">
<title>Node1</title>
<g id="a_node1"><a xlink:title=" ">
<polygon fill="#999999" stroke="#666666" points="26.5,-0.5 26.5,-156.5 209.5,-156.5 209.5,-0.5 26.5,-0.5"/>
<text text-anchor="middle" x="118" y="-144.5" font-family="Helvetica,sans-Serif" font-size="10.00">Communicator</text>
<polyline fill="none" stroke="#666666" points="26.5,-137.5 209.5,-137.5"/>
<text text-anchor="start" x="34.5" y="-125.5" font-family="Helvetica,sans-Serif" font-size="10.00">&#45; String arr</text>
<polyline fill="none" stroke="#666666" points="26.5,-118.5 209.5,-118.5"/>
<text text-anchor="start" x="34.5" y="-106.5" font-family="Helvetica,sans-Serif" font-size="10.00">+ void initSerial(unsigned long baud)</text>
<text text-anchor="start" x="34.5" y="-95.5" font-family="Helvetica,sans-Serif" font-size="10.00">+ void establishConnection()</text>
<text text-anchor="start" x="34.5" y="-84.5" font-family="Helvetica,sans-Serif" font-size="10.00">+ void checkState()</text>
<text text-anchor="start" x="34.5" y="-73.5" font-family="Helvetica,sans-Serif" font-size="10.00">+ void receiveList()</text>
<text text-anchor="start" x="34.5" y="-62.5" font-family="Helvetica,sans-Serif" font-size="10.00">+ int launchProject()</text>
<text text-anchor="start" x="34.5" y="-51.5" font-family="Helvetica,sans-Serif" font-size="10.00">+ int rebootProject()</text>
<text text-anchor="start" x="34.5" y="-40.5" font-family="Helvetica,sans-Serif" font-size="10.00">+ int stopProject()</text>
<text text-anchor="start" x="34.5" y="-29.5" font-family="Helvetica,sans-Serif" font-size="10.00">+ static Communicator * getInstance()</text>
<text text-anchor="start" x="34.5" y="-18.5" font-family="Helvetica,sans-Serif" font-size="10.00">&#45; Communicator()</text>
<text text-anchor="start" x="34.5" y="-7.5" font-family="Helvetica,sans-Serif" font-size="10.00">&#45; void processResponse()</text>
</a>
</g>
</g>
<!-- Node1&#45;&gt;Node1 -->
<g id="edge1" class="edge">
<title>Node1&#45;&gt;Node1</title>
<path fill="none" stroke="#404040" d="M209.45,-94.94C220.37,-91.95 227.5,-86.47 227.5,-78.5 227.5,-74.02 225.24,-70.32 221.33,-67.42"/>
<polygon fill="none" stroke="#404040" points="221.22,-67.37 214.1,-68.55 210.28,-62.43 217.39,-61.25 221.22,-67.37"/>
<text text-anchor="middle" x="264" y="-76" font-family="Helvetica,sans-Serif" font-size="10.00"> &#45;_communicator</text>
</g>
<!-- Node2 -->
<g id="node2" class="node">
<title>Node2</title>
<g id="a_node2"><a xlink:href="classStateManager.html" target="_top" xlink:title=" ">
<polygon fill="white" stroke="#666666" points="0,-408.5 0,-597.5 236,-597.5 236,-408.5 0,-408.5"/>
<text text-anchor="middle" x="118" y="-585.5" font-family="Helvetica,sans-Serif" font-size="10.00">StateManager</text>
<polyline fill="none" stroke="#666666" points="0,-578.5 236,-578.5"/>
<text text-anchor="start" x="8" y="-566.5" font-family="Helvetica,sans-Serif" font-size="10.00">&#45; State connectionState</text>
<text text-anchor="start" x="8" y="-555.5" font-family="Helvetica,sans-Serif" font-size="10.00">&#45; State listState</text>
<text text-anchor="start" x="8" y="-544.5" font-family="Helvetica,sans-Serif" font-size="10.00">&#45; State projectState</text>
<text text-anchor="start" x="8" y="-533.5" font-family="Helvetica,sans-Serif" font-size="10.00">&#45; String activeProject</text>
<polyline fill="none" stroke="#666666" points="0,-526.5 236,-526.5"/>
<text text-anchor="start" x="8" y="-514.5" font-family="Helvetica,sans-Serif" font-size="10.00">+ State getConnectionState()</text>
<text text-anchor="start" x="8" y="-503.5" font-family="Helvetica,sans-Serif" font-size="10.00">+ void setConnectionState(State connectionState)</text>
<text text-anchor="start" x="8" y="-492.5" font-family="Helvetica,sans-Serif" font-size="10.00">+ State getProjectState()</text>
<text text-anchor="start" x="8" y="-481.5" font-family="Helvetica,sans-Serif" font-size="10.00">+ void setProjectState(State projectState)</text>
<text text-anchor="start" x="8" y="-470.5" font-family="Helvetica,sans-Serif" font-size="10.00">+ State getListState()</text>
<text text-anchor="start" x="8" y="-459.5" font-family="Helvetica,sans-Serif" font-size="10.00">+ void setListState(State listState)</text>
<text text-anchor="start" x="8" y="-448.5" font-family="Helvetica,sans-Serif" font-size="10.00">+ String getActiveProject()</text>
<text text-anchor="start" x="8" y="-437.5" font-family="Helvetica,sans-Serif" font-size="10.00">+ void setActiveProject(String project)</text>
<text text-anchor="start" x="8" y="-426.5" font-family="Helvetica,sans-Serif" font-size="10.00">+ static StateManager * getInstance()</text>
<text text-anchor="start" x="8" y="-415.5" font-family="Helvetica,sans-Serif" font-size="10.00">&#45; StateManager()</text>
</a>
</g>
</g>
<!-- Node2&#45;&gt;Node1 -->
<g id="edge2" class="edge">
<title>Node2&#45;&gt;Node1</title>
<path fill="none" stroke="#404040" d="M113.47,-408.73C112.86,-392.81 112.33,-376.43 112,-361 110.52,-291.24 110.32,-273.76 112,-204 112.27,-192.64 112.69,-180.7 113.17,-168.9"/>
<polygon fill="none" stroke="#404040" points="113.16,-169.08 109.43,-162.91 113.68,-157.09 117.42,-163.25 113.16,-169.08"/>
<text text-anchor="middle" x="145" y="-280" font-family="Helvetica,sans-Serif" font-size="10.00"> &#45;stateManager</text>
</g>
<!-- Node2&#45;&gt;Node2 -->
<g id="edge3" class="edge">
<title>Node2&#45;&gt;Node2</title>
<path fill="none" stroke="#404040" d="M235.98,-520.81C247.03,-517.15 254,-511.22 254,-503 254,-498.25 251.67,-494.26 247.57,-491.03"/>
<polygon fill="none" stroke="#404040" points="247.5,-491 240.34,-491.87 236.78,-485.59 243.94,-484.73 247.5,-491"/>
<text text-anchor="middle" x="289.5" y="-500.5" font-family="Helvetica,sans-Serif" font-size="10.00"> &#45;_stateManager</text>
</g>
<!-- Node3 -->
<g id="node3" class="node">
<title>Node3</title>
<g id="a_node3"><a xlink:href="classList.html" target="_top" xlink:title=" ">
<polygon fill="white" stroke="#666666" points="186.5,-204.5 186.5,-360.5 373.5,-360.5 373.5,-204.5 186.5,-204.5"/>
<text text-anchor="middle" x="280" y="-348.5" font-family="Helvetica,sans-Serif" font-size="10.00">List</text>
<polyline fill="none" stroke="#666666" points="186.5,-341.5 373.5,-341.5"/>
<text text-anchor="start" x="194.5" y="-329.5" font-family="Helvetica,sans-Serif" font-size="10.00">&#45; int size</text>
<text text-anchor="start" x="194.5" y="-318.5" font-family="Helvetica,sans-Serif" font-size="10.00">&#45; int offset</text>
<text text-anchor="start" x="194.5" y="-307.5" font-family="Helvetica,sans-Serif" font-size="10.00">&#45; String list</text>
<polyline fill="none" stroke="#666666" points="186.5,-300.5 373.5,-300.5"/>
<text text-anchor="start" x="194.5" y="-288.5" font-family="Helvetica,sans-Serif" font-size="10.00">+ void setProjects(String list[], int size)</text>
<text text-anchor="start" x="194.5" y="-277.5" font-family="Helvetica,sans-Serif" font-size="10.00">+ void moveUp()</text>
<text text-anchor="start" x="194.5" y="-266.5" font-family="Helvetica,sans-Serif" font-size="10.00">+ void moveDown()</text>
<text text-anchor="start" x="194.5" y="-255.5" font-family="Helvetica,sans-Serif" font-size="10.00">+ String getFirstProject()</text>
<text text-anchor="start" x="194.5" y="-244.5" font-family="Helvetica,sans-Serif" font-size="10.00">+ String getSecondProject()</text>
<text text-anchor="start" x="194.5" y="-233.5" font-family="Helvetica,sans-Serif" font-size="10.00">+ static List * getInstance()</text>
<text text-anchor="start" x="194.5" y="-222.5" font-family="Helvetica,sans-Serif" font-size="10.00">&#45; List()</text>
<text text-anchor="start" x="194.5" y="-211.5" font-family="Helvetica,sans-Serif" font-size="10.00">&#45; String getProject(int index)</text>
</a>
</g>
</g>
<!-- Node2&#45;&gt;Node3 -->
<g id="edge6" class="edge">
<title>Node2&#45;&gt;Node3</title>
<path fill="none" stroke="#404040" d="M187.17,-408.7C196.51,-396.11 206.06,-383.22 215.32,-370.74"/>
<polygon fill="none" stroke="#404040" points="215.33,-370.72 215.69,-363.52 222.48,-361.08 222.12,-368.28 215.33,-370.72"/>
<text text-anchor="middle" x="241" y="-382" font-family="Helvetica,sans-Serif" font-size="10.00"> &#45;stateManager</text>
</g>
<!-- Node3&#45;&gt;Node1 -->
<g id="edge4" class="edge">
<title>Node3&#45;&gt;Node1</title>
<path fill="none" stroke="#404040" d="M218.29,-204.56C208.27,-192.06 197.84,-179.05 187.64,-166.34"/>
<polygon fill="none" stroke="#404040" points="187.61,-166.29 180.73,-164.12 180.1,-156.93 186.97,-159.11 187.61,-166.29"/>
<text text-anchor="middle" x="208.5" y="-178" font-family="Helvetica,sans-Serif" font-size="10.00"> &#45;list</text>
</g>
<!-- Node3&#45;&gt;Node3 -->
<g id="edge5" class="edge">
<title>Node3&#45;&gt;Node3</title>
<path fill="none" stroke="#404040" d="M373.13,-298.94C384.24,-295.95 391.5,-290.47 391.5,-282.5 391.5,-277.89 389.07,-274.12 384.88,-271.18"/>
<polygon fill="none" stroke="#404040" points="384.96,-271.21 377.86,-272.49 373.95,-266.42 381.05,-265.15 384.96,-271.21"/>
<text text-anchor="middle" x="404" y="-280" font-family="Helvetica,sans-Serif" font-size="10.00"> &#45;_list</text>
</g>
</g>
</svg>
