<?xml version="1.0" encoding="UTF-8" standalone="no"?>
<!DOCTYPE svg PUBLIC "-//W3C//DTD SVG 1.1//EN"
 "http://www.w3.org/Graphics/SVG/1.1/DTD/svg11.dtd">
<!-- Generated by graphviz version 8.0.1 (0)
 -->
<!-- Title: include/Communicator.h Pages: 1 -->
<svg width="172pt" height="192pt"
 viewBox="0.00 0.00 171.50 192.00" xmlns="http://www.w3.org/2000/svg" xmlns:xlink="http://www.w3.org/1999/xlink">
<g id="graph0" class="graph" transform="scale(1 1) rotate(0) translate(4 188)">
<title>include/Communicator.h</title>
<!-- Node1 -->
<g id="node1" class="node">
<title>Node1</title>
<g id="a_node1"><a xlink:title="communicate with PC via Serial">
<polygon fill="#999999" stroke="#666666" points="122,-184 0,-184 0,-165 122,-165 122,-184"/>
<text text-anchor="middle" x="61" y="-172" font-family="Helvetica,sans-Serif" font-size="10.00">include/Communicator.h</text>
</a>
</g>
</g>
<!-- Node2 -->
<g id="node2" class="node">
<title>Node2</title>
<g id="a_node2"><a xlink:title=" ">
<polygon fill="#e0e0e0" stroke="#999999" points="66,-19 8,-19 8,0 66,0 66,-19"/>
<text text-anchor="middle" x="37" y="-7" font-family="Helvetica,sans-Serif" font-size="10.00">Arduino.h</text>
</a>
</g>
</g>
<!-- Node1&#45;&gt;Node2 -->
<g id="edge1" class="edge">
<title>Node1&#45;&gt;Node2</title>
<path fill="none" stroke="#63b8ff" d="M52.79,-164.8C45.46,-156.38 35.25,-142.9 31,-129 20.7,-95.29 26.85,-53.71 32.06,-29.84"/>
<polygon fill="#63b8ff" stroke="#63b8ff" points="35.64,-30.91 34.54,-20.37 28.83,-29.3 35.64,-30.91"/>
</g>
<!-- Node3 -->
<g id="node3" class="node">
<title>Node3</title>
<g id="a_node3"><a xlink:href="StateManager_8h.html" target="_top" xlink:title="program state manager">
<polygon fill="white" stroke="#666666" points="158.5,-74 73.5,-74 73.5,-55 158.5,-55 158.5,-74"/>
<text text-anchor="middle" x="116" y="-62" font-family="Helvetica,sans-Serif" font-size="10.00">StateManager.h</text>
</a>
</g>
</g>
<!-- Node1&#45;&gt;Node3 -->
<g id="edge2" class="edge">
<title>Node1&#45;&gt;Node3</title>
<path fill="none" stroke="#63b8ff" d="M67.81,-164.66C74.33,-155.93 84.15,-142.03 91,-129 98.52,-114.71 105.11,-97.64 109.64,-84.8"/>
<polygon fill="#63b8ff" stroke="#63b8ff" points="113.27,-85.99 113.19,-75.39 106.65,-83.73 113.27,-85.99"/>
</g>
<!-- Node5 -->
<g id="node5" class="node">
<title>Node5</title>
<g id="a_node5"><a xlink:href="List_8h.html" target="_top" xlink:title="Contains and manipulate list of projects This class contains an array of Strigns which is an projects...">
<polygon fill="white" stroke="#666666" points="81.5,-129 40.5,-129 40.5,-110 81.5,-110 81.5,-129"/>
<text text-anchor="middle" x="61" y="-117" font-family="Helvetica,sans-Serif" font-size="10.00">List.h</text>
</a>
</g>
</g>
<!-- Node1&#45;&gt;Node5 -->
<g id="edge5" class="edge">
<title>Node1&#45;&gt;Node5</title>
<path fill="none" stroke="#63b8ff" d="M61,-164.75C61,-158.11 61,-148.73 61,-140.31"/>
<polygon fill="#63b8ff" stroke="#63b8ff" points="64.5,-140.44 61,-130.44 57.5,-140.44 64.5,-140.44"/>
</g>
<!-- Node3&#45;&gt;Node2 -->
<g id="edge3" class="edge">
<title>Node3&#45;&gt;Node2</title>
<path fill="none" stroke="#63b8ff" d="M102.6,-54.51C90.72,-46.54 73.15,-34.75 59.18,-25.38"/>
<polygon fill="#63b8ff" stroke="#63b8ff" points="61.46,-22.02 51.2,-19.36 57.56,-27.84 61.46,-22.02"/>
</g>
<!-- Node4 -->
<g id="node4" class="node">
<title>Node4</title>
<g id="a_node4"><a xlink:href="State__Enum_8h.html" target="_top" xlink:title="Enum of program states.">
<polygon fill="white" stroke="#666666" points="163.5,-19 84.5,-19 84.5,0 163.5,0 163.5,-19"/>
<text text-anchor="middle" x="124" y="-7" font-family="Helvetica,sans-Serif" font-size="10.00">State_Enum.h</text>
</a>
</g>
</g>
<!-- Node3&#45;&gt;Node4 -->
<g id="edge4" class="edge">
<title>Node3&#45;&gt;Node4</title>
<path fill="none" stroke="#63b8ff" d="M117.32,-54.75C118.32,-48.11 119.74,-38.73 121.01,-30.31"/>
<polygon fill="#63b8ff" stroke="#63b8ff" points="124.62,-30.85 122.65,-20.44 117.7,-29.81 124.62,-30.85"/>
</g>
<!-- Node5&#45;&gt;Node2 -->
<g id="edge6" class="edge">
<title>Node5&#45;&gt;Node2</title>
<path fill="none" stroke="#63b8ff" d="M59.04,-109.66C55.19,-92.34 46.57,-53.55 41.32,-29.95"/>
<polygon fill="#63b8ff" stroke="#63b8ff" points="44.58,-29.46 38.99,-20.46 37.74,-30.98 44.58,-29.46"/>
</g>
<!-- Node5&#45;&gt;Node3 -->
<g id="edge7" class="edge">
<title>Node5&#45;&gt;Node3</title>
<path fill="none" stroke="#63b8ff" d="M70.08,-109.75C77.92,-102.2 89.44,-91.09 98.99,-81.9"/>
<polygon fill="#63b8ff" stroke="#63b8ff" points="100.95,-84.9 105.72,-75.44 96.09,-79.86 100.95,-84.9"/>
</g>
</g>
</svg>
