<?xml version="1.0" encoding="UTF-8" standalone="no"?>
<!DOCTYPE svg PUBLIC "-//W3C//DTD SVG 1.1//EN"
 "http://www.w3.org/Graphics/SVG/1.1/DTD/svg11.dtd">
<!-- Generated by graphviz version 8.0.1 (0)
 -->
<!-- Title: include/Display.h Pages: 1 -->
<svg width="303pt" height="192pt"
 viewBox="0.00 0.00 303.00 192.00" xmlns="http://www.w3.org/2000/svg" xmlns:xlink="http://www.w3.org/1999/xlink">
<g id="graph0" class="graph" transform="scale(1 1) rotate(0) translate(4 188)">
<title>include/Display.h</title>
<!-- Node1 -->
<g id="node1" class="node">
<title>Node1</title>
<g id="a_node1"><a xlink:title="Wrapper for Arduino I2C display.">
<polygon fill="#999999" stroke="#666666" points="159.5,-184 69.5,-184 69.5,-165 159.5,-165 159.5,-184"/>
<text text-anchor="middle" x="114.5" y="-172" font-family="Helvetica,sans-Serif" font-size="10.00">include/Display.h</text>
</a>
</g>
</g>
<!-- Node2 -->
<g id="node2" class="node">
<title>Node2</title>
<g id="a_node2"><a xlink:title=" ">
<polygon fill="#e0e0e0" stroke="#999999" points="45,-129 0,-129 0,-110 45,-110 45,-129"/>
<text text-anchor="middle" x="22.5" y="-117" font-family="Helvetica,sans-Serif" font-size="10.00">Wire.h</text>
</a>
</g>
</g>
<!-- Node1&#45;&gt;Node2 -->
<g id="edge1" class="edge">
<title>Node1&#45;&gt;Node2</title>
<path fill="none" stroke="#63b8ff" d="M98.89,-164.51C84.8,-156.39 63.81,-144.3 47.4,-134.85"/>
<polygon fill="#63b8ff" stroke="#63b8ff" points="49.29,-131.32 38.88,-129.36 45.79,-137.38 49.29,-131.32"/>
</g>
<!-- Node3 -->
<g id="node3" class="node">
<title>Node3</title>
<g id="a_node3"><a xlink:title=" ">
<polygon fill="#e0e0e0" stroke="#999999" points="166,-129 63,-129 63,-110 166,-110 166,-129"/>
<text text-anchor="middle" x="114.5" y="-117" font-family="Helvetica,sans-Serif" font-size="10.00">LiquidCrystal_I2C.h</text>
</a>
</g>
</g>
<!-- Node1&#45;&gt;Node3 -->
<g id="edge2" class="edge">
<title>Node1&#45;&gt;Node3</title>
<path fill="none" stroke="#63b8ff" d="M114.5,-164.75C114.5,-158.11 114.5,-148.73 114.5,-140.31"/>
<polygon fill="#63b8ff" stroke="#63b8ff" points="118,-140.44 114.5,-130.44 111,-140.44 118,-140.44"/>
</g>
<!-- Node4 -->
<g id="node4" class="node">
<title>Node4</title>
<g id="a_node4"><a xlink:href="List_8h.html" target="_top" xlink:title="Contains and manipulate list of projects This class contains an array of Strigns which is an projects...">
<polygon fill="white" stroke="#666666" points="225,-129 184,-129 184,-110 225,-110 225,-129"/>
<text text-anchor="middle" x="204.5" y="-117" font-family="Helvetica,sans-Serif" font-size="10.00">List.h</text>
</a>
</g>
</g>
<!-- Node1&#45;&gt;Node4 -->
<g id="edge3" class="edge">
<title>Node1&#45;&gt;Node4</title>
<path fill="none" stroke="#63b8ff" d="M129.77,-164.51C143.56,-156.39 164.09,-144.3 180.14,-134.85"/>
<polygon fill="#63b8ff" stroke="#63b8ff" points="181.62,-137.45 188.46,-129.36 178.07,-131.42 181.62,-137.45"/>
</g>
<!-- Node5 -->
<g id="node5" class="node">
<title>Node5</title>
<g id="a_node5"><a xlink:title=" ">
<polygon fill="#e0e0e0" stroke="#999999" points="197.5,-19 139.5,-19 139.5,0 197.5,0 197.5,-19"/>
<text text-anchor="middle" x="168.5" y="-7" font-family="Helvetica,sans-Serif" font-size="10.00">Arduino.h</text>
</a>
</g>
</g>
<!-- Node4&#45;&gt;Node5 -->
<g id="edge4" class="edge">
<title>Node4&#45;&gt;Node5</title>
<path fill="none" stroke="#63b8ff" d="M201.21,-109.67C197.9,-100.72 192.7,-86.45 188.5,-74 183.47,-59.07 178.13,-42.04 174.23,-29.38"/>
<polygon fill="#63b8ff" stroke="#63b8ff" points="177.38,-28.7 171.11,-20.16 170.68,-30.75 177.38,-28.7"/>
</g>
<!-- Node6 -->
<g id="node6" class="node">
<title>Node6</title>
<g id="a_node6"><a xlink:href="StateManager_8h.html" target="_top" xlink:title="program state manager">
<polygon fill="white" stroke="#666666" points="282,-74 197,-74 197,-55 282,-55 282,-74"/>
<text text-anchor="middle" x="239.5" y="-62" font-family="Helvetica,sans-Serif" font-size="10.00">StateManager.h</text>
</a>
</g>
</g>
<!-- Node4&#45;&gt;Node6 -->
<g id="edge5" class="edge">
<title>Node4&#45;&gt;Node6</title>
<path fill="none" stroke="#63b8ff" d="M210.28,-109.75C214.96,-102.66 221.72,-92.42 227.56,-83.59"/>
<polygon fill="#63b8ff" stroke="#63b8ff" points="231,-85.72 233.59,-75.44 225.16,-81.86 231,-85.72"/>
</g>
<!-- Node6&#45;&gt;Node5 -->
<g id="edge6" class="edge">
<title>Node6&#45;&gt;Node5</title>
<path fill="none" stroke="#63b8ff" d="M227.46,-54.51C216.99,-46.7 201.6,-35.21 189.17,-25.93"/>
<polygon fill="#63b8ff" stroke="#63b8ff" points="191.47,-22.54 181.37,-19.36 187.29,-28.14 191.47,-22.54"/>
</g>
<!-- Node7 -->
<g id="node7" class="node">
<title>Node7</title>
<g id="a_node7"><a xlink:href="State__Enum_8h.html" target="_top" xlink:title="Enum of program states.">
<polygon fill="white" stroke="#666666" points="295,-19 216,-19 216,0 295,0 295,-19"/>
<text text-anchor="middle" x="255.5" y="-7" font-family="Helvetica,sans-Serif" font-size="10.00">State_Enum.h</text>
</a>
</g>
</g>
<!-- Node6&#45;&gt;Node7 -->
<g id="edge7" class="edge">
<title>Node6&#45;&gt;Node7</title>
<path fill="none" stroke="#63b8ff" d="M242.14,-54.75C244.19,-47.96 247.11,-38.3 249.69,-29.73"/>
<polygon fill="#63b8ff" stroke="#63b8ff" points="253.26,-31.03 252.8,-20.44 246.56,-29 253.26,-31.03"/>
</g>
</g>
</svg>
