<?xml version="1.0" encoding="UTF-8" standalone="no"?>
<!DOCTYPE svg PUBLIC "-//W3C//DTD SVG 1.1//EN"
 "http://www.w3.org/Graphics/SVG/1.1/DTD/svg11.dtd">
<!-- Generated by graphviz version 8.0.1 (0)
 -->
<!-- Title: include/Controls/JoyProcessor.h Pages: 1 -->
<svg width="220pt" height="192pt"
 viewBox="0.00 0.00 219.50 192.00" xmlns="http://www.w3.org/2000/svg" xmlns:xlink="http://www.w3.org/1999/xlink">
<g id="graph0" class="graph" transform="scale(1 1) rotate(0) translate(4 188)">
<title>include/Controls/JoyProcessor.h</title>
<!-- Node1 -->
<g id="node1" class="node">
<title>Node1</title>
<g id="a_node1"><a xlink:title="Handle joystick.">
<polygon fill="#999999" stroke="#666666" points="158,-184 0,-184 0,-165 158,-165 158,-184"/>
<text text-anchor="middle" x="79" y="-172" font-family="Helvetica,sans-Serif" font-size="10.00">include/Controls/JoyProcessor.h</text>
</a>
</g>
</g>
<!-- Node2 -->
<g id="node2" class="node">
<title>Node2</title>
<g id="a_node2"><a xlink:title=" ">
<polygon fill="#e0e0e0" stroke="#999999" points="114,-19 56,-19 56,0 114,0 114,-19"/>
<text text-anchor="middle" x="85" y="-7" font-family="Helvetica,sans-Serif" font-size="10.00">Arduino.h</text>
</a>
</g>
</g>
<!-- Node1&#45;&gt;Node2 -->
<g id="edge1" class="edge">
<title>Node1&#45;&gt;Node2</title>
<path fill="none" stroke="#63b8ff" d="M77.71,-164.66C76.47,-155.7 74.7,-141.42 74,-129 72.04,-94.04 77.5,-53.44 81.41,-29.98"/>
<polygon fill="#63b8ff" stroke="#63b8ff" points="84.98,-30.86 83.26,-20.4 78.09,-29.65 84.98,-30.86"/>
</g>
<!-- Node3 -->
<g id="node3" class="node">
<title>Node3</title>
<g id="a_node3"><a xlink:href="List_8h.html" target="_top" xlink:title="Contains and manipulate list of projects This class contains an array of Strigns which is an projects...">
<polygon fill="white" stroke="#666666" points="124.5,-129 83.5,-129 83.5,-110 124.5,-110 124.5,-129"/>
<text text-anchor="middle" x="104" y="-117" font-family="Helvetica,sans-Serif" font-size="10.00">List.h</text>
</a>
</g>
</g>
<!-- Node1&#45;&gt;Node3 -->
<g id="edge2" class="edge">
<title>Node1&#45;&gt;Node3</title>
<path fill="none" stroke="#63b8ff" d="M83.13,-164.75C86.4,-157.81 91.09,-147.86 95.2,-139.16"/>
<polygon fill="#63b8ff" stroke="#63b8ff" points="98.68,-140.98 99.78,-130.44 92.35,-137.99 98.68,-140.98"/>
</g>
<!-- Node3&#45;&gt;Node2 -->
<g id="edge3" class="edge">
<title>Node3&#45;&gt;Node2</title>
<path fill="none" stroke="#63b8ff" d="M102.45,-109.66C99.41,-92.42 92.64,-53.9 88.48,-30.27"/>
<polygon fill="#63b8ff" stroke="#63b8ff" points="91.76,-29.7 86.58,-20.46 84.86,-30.92 91.76,-29.7"/>
</g>
<!-- Node4 -->
<g id="node4" class="node">
<title>Node4</title>
<g id="a_node4"><a xlink:href="StateManager_8h.html" target="_top" xlink:title="program state manager">
<polygon fill="white" stroke="#666666" points="206.5,-74 121.5,-74 121.5,-55 206.5,-55 206.5,-74"/>
<text text-anchor="middle" x="164" y="-62" font-family="Helvetica,sans-Serif" font-size="10.00">StateManager.h</text>
</a>
</g>
</g>
<!-- Node3&#45;&gt;Node4 -->
<g id="edge4" class="edge">
<title>Node3&#45;&gt;Node4</title>
<path fill="none" stroke="#63b8ff" d="M114.18,-109.51C122.85,-101.85 135.52,-90.66 145.92,-81.47"/>
<polygon fill="#63b8ff" stroke="#63b8ff" points="147.79,-84.6 152.97,-75.36 143.16,-79.36 147.79,-84.6"/>
</g>
<!-- Node4&#45;&gt;Node2 -->
<g id="edge5" class="edge">
<title>Node4&#45;&gt;Node2</title>
<path fill="none" stroke="#63b8ff" d="M150.6,-54.51C138.72,-46.54 121.15,-34.75 107.18,-25.38"/>
<polygon fill="#63b8ff" stroke="#63b8ff" points="109.46,-22.02 99.2,-19.36 105.56,-27.84 109.46,-22.02"/>
</g>
<!-- Node5 -->
<g id="node5" class="node">
<title>Node5</title>
<g id="a_node5"><a xlink:href="State__Enum_8h.html" target="_top" xlink:title="Enum of program states.">
<polygon fill="white" stroke="#666666" points="211.5,-19 132.5,-19 132.5,0 211.5,0 211.5,-19"/>
<text text-anchor="middle" x="172" y="-7" font-family="Helvetica,sans-Serif" font-size="10.00">State_Enum.h</text>
</a>
</g>
</g>
<!-- Node4&#45;&gt;Node5 -->
<g id="edge6" class="edge">
<title>Node4&#45;&gt;Node5</title>
<path fill="none" stroke="#63b8ff" d="M165.32,-54.75C166.32,-48.11 167.74,-38.73 169.01,-30.31"/>
<polygon fill="#63b8ff" stroke="#63b8ff" points="172.62,-30.85 170.65,-20.44 165.7,-29.81 172.62,-30.85"/>
</g>
</g>
</svg>
