<?xml version="1.0" encoding="UTF-8" standalone="no"?>
<!DOCTYPE svg PUBLIC "-//W3C//DTD SVG 1.1//EN"
 "http://www.w3.org/Graphics/SVG/1.1/DTD/svg11.dtd">
<!-- Generated by graphviz version 8.0.1 (0)
 -->
<!-- Title: include/List.h Pages: 1 -->
<svg width="415pt" height="148pt"
 viewBox="0.00 0.00 415.00 148.00" xmlns="http://www.w3.org/2000/svg" xmlns:xlink="http://www.w3.org/1999/xlink">
<g id="graph0" class="graph" transform="scale(1 1) rotate(0) translate(4 144)">
<title>include/List.h</title>
<!-- Node1 -->
<g id="node1" class="node">
<title>Node1</title>
<g id="a_node1"><a xlink:title="Contains and manipulate list of projects This class contains an array of Strigns which is an projects...">
<polygon fill="#999999" stroke="#666666" points="257,-140 183,-140 183,-121 257,-121 257,-140"/>
<text text-anchor="middle" x="220" y="-128" font-family="Helvetica,sans-Serif" font-size="10.00">include/List.h</text>
</a>
</g>
</g>
<!-- Node2 -->
<g id="node2" class="node">
<title>Node2</title>
<g id="a_node2"><a xlink:href="Communicator_8h.html" target="_top" xlink:title="communicate with PC via Serial">
<polygon fill="white" stroke="#666666" points="123,-85 1,-85 1,-66 123,-66 123,-85"/>
<text text-anchor="middle" x="62" y="-73" font-family="Helvetica,sans-Serif" font-size="10.00">include/Communicator.h</text>
</a>
</g>
</g>
<!-- Node1&#45;&gt;Node2 -->
<g id="edge1" class="edge">
<title>Node1&#45;&gt;Node2</title>
<path fill="none" stroke="#63b8ff" d="M183.06,-117.11C154.13,-107.41 114.58,-94.14 88.67,-85.45"/>
<polygon fill="#63b8ff" stroke="#63b8ff" points="181.6,-120.65 192.2,-120.51 183.83,-114.01 181.6,-120.65"/>
</g>
<!-- Node4 -->
<g id="node4" class="node">
<title>Node4</title>
<g id="a_node4"><a xlink:href="JoyProcessor_8h.html" target="_top" xlink:title="Handle joystick.">
<polygon fill="white" stroke="#666666" points="299,-85 141,-85 141,-66 299,-66 299,-85"/>
<text text-anchor="middle" x="220" y="-73" font-family="Helvetica,sans-Serif" font-size="10.00">include/Controls/JoyProcessor.h</text>
</a>
</g>
</g>
<!-- Node1&#45;&gt;Node4 -->
<g id="edge3" class="edge">
<title>Node1&#45;&gt;Node4</title>
<path fill="none" stroke="#63b8ff" d="M220,-109.93C220,-101.53 220,-92.13 220,-85.44"/>
<polygon fill="#63b8ff" stroke="#63b8ff" points="216.5,-109.75 220,-119.75 223.5,-109.75 216.5,-109.75"/>
</g>
<!-- Node5 -->
<g id="node5" class="node">
<title>Node5</title>
<g id="a_node5"><a xlink:href="Display_8h.html" target="_top" xlink:title="Wrapper for Arduino I2C display.">
<polygon fill="white" stroke="#666666" points="407,-85 317,-85 317,-66 407,-66 407,-85"/>
<text text-anchor="middle" x="362" y="-73" font-family="Helvetica,sans-Serif" font-size="10.00">include/Display.h</text>
</a>
</g>
</g>
<!-- Node1&#45;&gt;Node5 -->
<g id="edge4" class="edge">
<title>Node1&#45;&gt;Node5</title>
<path fill="none" stroke="#63b8ff" d="M254.26,-116.71C280.25,-107.01 315.3,-93.93 338.27,-85.36"/>
<polygon fill="#63b8ff" stroke="#63b8ff" points="253.23,-113.73 245.09,-120.51 255.68,-120.29 253.23,-113.73"/>
</g>
<!-- Node3 -->
<g id="node3" class="node">
<title>Node3</title>
<g id="a_node3"><a xlink:href="ButtonsProcessor_8h.html" target="_top" xlink:title="Handle buttons.">
<polygon fill="white" stroke="#666666" points="124,-30 0,-30 0,0 124,0 124,-30"/>
<text text-anchor="start" x="8" y="-18" font-family="Helvetica,sans-Serif" font-size="10.00">include/Controls/Buttons</text>
<text text-anchor="middle" x="62" y="-7" font-family="Helvetica,sans-Serif" font-size="10.00">Processor.h</text>
</a>
</g>
</g>
<!-- Node2&#45;&gt;Node3 -->
<g id="edge2" class="edge">
<title>Node2&#45;&gt;Node3</title>
<path fill="none" stroke="#63b8ff" d="M62,-55.08C62,-46.92 62,-37.6 62,-30.11"/>
<polygon fill="#63b8ff" stroke="#63b8ff" points="58.5,-54.87 62,-64.87 65.5,-54.87 58.5,-54.87"/>
</g>
</g>
</svg>
