<?xml version="1.0" encoding="UTF-8" standalone="no"?>
<!DOCTYPE svg PUBLIC "-//W3C//DTD SVG 1.1//EN"
 "http://www.w3.org/Graphics/SVG/1.1/DTD/svg11.dtd">
<!-- Generated by graphviz version 8.0.1 (0)
 -->
<!-- Title: include/List.h Pages: 1 -->
<svg width="164pt" height="137pt"
 viewBox="0.00 0.00 163.50 137.00" xmlns="http://www.w3.org/2000/svg" xmlns:xlink="http://www.w3.org/1999/xlink">
<g id="graph0" class="graph" transform="scale(1 1) rotate(0) translate(4 133)">
<title>include/List.h</title>
<!-- Node1 -->
<g id="node1" class="node">
<title>Node1</title>
<g id="a_node1"><a xlink:title="Contains and manipulate list of projects This class contains an array of Strigns which is an projects...">
<polygon fill="#999999" stroke="#666666" points="101,-129 27,-129 27,-110 101,-110 101,-129"/>
<text text-anchor="middle" x="64" y="-117" font-family="Helvetica,sans-Serif" font-size="10.00">include/List.h</text>
</a>
</g>
</g>
<!-- Node2 -->
<g id="node2" class="node">
<title>Node2</title>
<g id="a_node2"><a xlink:title=" ">
<polygon fill="#e0e0e0" stroke="#999999" points="58,-19 0,-19 0,0 58,0 58,-19"/>
<text text-anchor="middle" x="29" y="-7" font-family="Helvetica,sans-Serif" font-size="10.00">Arduino.h</text>
</a>
</g>
</g>
<!-- Node1&#45;&gt;Node2 -->
<g id="edge1" class="edge">
<title>Node1&#45;&gt;Node2</title>
<path fill="none" stroke="#63b8ff" d="M60.96,-109.65C57.89,-100.68 53.04,-86.4 49,-74 44.12,-59.02 38.77,-42 34.83,-29.35"/>
<polygon fill="#63b8ff" stroke="#63b8ff" points="37.97,-28.66 31.66,-20.15 31.28,-30.73 37.97,-28.66"/>
</g>
<!-- Node3 -->
<g id="node3" class="node">
<title>Node3</title>
<g id="a_node3"><a xlink:href="StateManager_8h.html" target="_top" xlink:title="program state manager">
<polygon fill="white" stroke="#666666" points="142.5,-74 57.5,-74 57.5,-55 142.5,-55 142.5,-74"/>
<text text-anchor="middle" x="100" y="-62" font-family="Helvetica,sans-Serif" font-size="10.00">StateManager.h</text>
</a>
</g>
</g>
<!-- Node1&#45;&gt;Node3 -->
<g id="edge2" class="edge">
<title>Node1&#45;&gt;Node3</title>
<path fill="none" stroke="#63b8ff" d="M69.94,-109.75C74.81,-102.58 81.86,-92.2 87.91,-83.3"/>
<polygon fill="#63b8ff" stroke="#63b8ff" points="91.2,-85.68 93.93,-75.44 85.41,-81.75 91.2,-85.68"/>
</g>
<!-- Node3&#45;&gt;Node2 -->
<g id="edge3" class="edge">
<title>Node3&#45;&gt;Node2</title>
<path fill="none" stroke="#63b8ff" d="M87.96,-54.51C77.49,-46.7 62.1,-35.21 49.67,-25.93"/>
<polygon fill="#63b8ff" stroke="#63b8ff" points="51.97,-22.54 41.87,-19.36 47.79,-28.14 51.97,-22.54"/>
</g>
<!-- Node4 -->
<g id="node4" class="node">
<title>Node4</title>
<g id="a_node4"><a xlink:href="State__Enum_8h.html" target="_top" xlink:title="Enum of program states.">
<polygon fill="white" stroke="#666666" points="155.5,-19 76.5,-19 76.5,0 155.5,0 155.5,-19"/>
<text text-anchor="middle" x="116" y="-7" font-family="Helvetica,sans-Serif" font-size="10.00">State_Enum.h</text>
</a>
</g>
</g>
<!-- Node3&#45;&gt;Node4 -->
<g id="edge4" class="edge">
<title>Node3&#45;&gt;Node4</title>
<path fill="none" stroke="#63b8ff" d="M102.64,-54.75C104.69,-47.96 107.61,-38.3 110.19,-29.73"/>
<polygon fill="#63b8ff" stroke="#63b8ff" points="113.76,-31.03 113.3,-20.44 107.06,-29 113.76,-31.03"/>
</g>
</g>
</svg>
