<?xml version="1.0" encoding="UTF-8" standalone="no"?>
<!DOCTYPE svg PUBLIC "-//W3C//DTD SVG 1.1//EN"
 "http://www.w3.org/Graphics/SVG/1.1/DTD/svg11.dtd">
<!-- Generated by graphviz version 8.0.1 (0)
 -->
<!-- Title: include/List.h Pages: 1 -->
<svg width="441pt" height="137pt"
 viewBox="0.00 0.00 441.00 137.00" xmlns="http://www.w3.org/2000/svg" xmlns:xlink="http://www.w3.org/1999/xlink">
<g id="graph0" class="graph" transform="scale(1 1) rotate(0) translate(4 133)">
<title>include/List.h</title>
<!-- Node1 -->
<g id="node1" class="node">
<title>Node1</title>
<g id="a_node1"><a xlink:title="Contains and manipulate list of projects This class contains an array of Strigns which is an projects...">
<polygon fill="#999999" stroke="#666666" points="283,-129 209,-129 209,-110 283,-110 283,-129"/>
<text text-anchor="middle" x="246" y="-117" font-family="Helvetica,sans-Serif" font-size="10.00">include/List.h</text>
</a>
</g>
</g>
<!-- Node2 -->
<g id="node2" class="node">
<title>Node2</title>
<g id="a_node2"><a xlink:href="Communicator_8h.html" target="_top" xlink:title="communicate with PC via Serial">
<polygon fill="white" stroke="#666666" points="149,-74 27,-74 27,-55 149,-55 149,-74"/>
<text text-anchor="middle" x="88" y="-62" font-family="Helvetica,sans-Serif" font-size="10.00">include/Communicator.h</text>
</a>
</g>
</g>
<!-- Node1&#45;&gt;Node2 -->
<g id="edge1" class="edge">
<title>Node1&#45;&gt;Node2</title>
<path fill="none" stroke="#63b8ff" d="M209.06,-106.11C180.13,-96.41 140.58,-83.14 114.67,-74.45"/>
<polygon fill="#63b8ff" stroke="#63b8ff" points="207.6,-109.65 218.2,-109.51 209.83,-103.01 207.6,-109.65"/>
</g>
<!-- Node4 -->
<g id="node4" class="node">
<title>Node4</title>
<g id="a_node4"><a xlink:href="JoyProcessor_8h.html" target="_top" xlink:title="Handle joystick.">
<polygon fill="white" stroke="#666666" points="325,-74 167,-74 167,-55 325,-55 325,-74"/>
<text text-anchor="middle" x="246" y="-62" font-family="Helvetica,sans-Serif" font-size="10.00">include/Controls/JoyProcessor.h</text>
</a>
</g>
</g>
<!-- Node1&#45;&gt;Node4 -->
<g id="edge3" class="edge">
<title>Node1&#45;&gt;Node4</title>
<path fill="none" stroke="#63b8ff" d="M246,-98.93C246,-90.53 246,-81.13 246,-74.44"/>
<polygon fill="#63b8ff" stroke="#63b8ff" points="242.5,-98.75 246,-108.75 249.5,-98.75 242.5,-98.75"/>
</g>
<!-- Node5 -->
<g id="node5" class="node">
<title>Node5</title>
<g id="a_node5"><a xlink:href="Display_8h.html" target="_top" xlink:title="Wrapper for Arduino I2C display.">
<polygon fill="white" stroke="#666666" points="433,-74 343,-74 343,-55 433,-55 433,-74"/>
<text text-anchor="middle" x="388" y="-62" font-family="Helvetica,sans-Serif" font-size="10.00">include/Display.h</text>
</a>
</g>
</g>
<!-- Node1&#45;&gt;Node5 -->
<g id="edge4" class="edge">
<title>Node1&#45;&gt;Node5</title>
<path fill="none" stroke="#63b8ff" d="M280.26,-105.71C306.25,-96.01 341.3,-82.93 364.27,-74.36"/>
<polygon fill="#63b8ff" stroke="#63b8ff" points="279.23,-102.73 271.09,-109.51 281.68,-109.29 279.23,-102.73"/>
</g>
<!-- Node3 -->
<g id="node3" class="node">
<title>Node3</title>
<g id="a_node3"><a xlink:href="ButtonsProcessor_8h.html" target="_top" xlink:title="Handle buttons.">
<polygon fill="white" stroke="#666666" points="176,-19 0,-19 0,0 176,0 176,-19"/>
<text text-anchor="middle" x="88" y="-7" font-family="Helvetica,sans-Serif" font-size="10.00">include/Controls/ButtonsProcessor.h</text>
</a>
</g>
</g>
<!-- Node2&#45;&gt;Node3 -->
<g id="edge2" class="edge">
<title>Node2&#45;&gt;Node3</title>
<path fill="none" stroke="#63b8ff" d="M88,-43.93C88,-35.53 88,-26.13 88,-19.44"/>
<polygon fill="#63b8ff" stroke="#63b8ff" points="84.5,-43.75 88,-53.75 91.5,-43.75 84.5,-43.75"/>
</g>
</g>
</svg>
