<?xml version="1.0" encoding="UTF-8" standalone="no"?>
<!DOCTYPE svg PUBLIC "-//W3C//DTD SVG 1.1//EN"
 "http://www.w3.org/Graphics/SVG/1.1/DTD/svg11.dtd">
<!-- Generated by graphviz version 8.0.1 (0)
 -->
<!-- Title: include/State_Enum.h Pages: 1 -->
<svg width="460pt" height="258pt"
 viewBox="0.00 0.00 460.00 258.00" xmlns="http://www.w3.org/2000/svg" xmlns:xlink="http://www.w3.org/1999/xlink">
<g id="graph0" class="graph" transform="scale(1 1) rotate(0) translate(4 254)">
<title>include/State_Enum.h</title>
<!-- Node1 -->
<g id="node1" class="node">
<title>Node1</title>
<g id="a_node1"><a xlink:title="Enum of program states.">
<polygon fill="#999999" stroke="#666666" points="163.5,-250 50.5,-250 50.5,-231 163.5,-231 163.5,-250"/>
<text text-anchor="middle" x="107" y="-238" font-family="Helvetica,sans-Serif" font-size="10.00">include/State_Enum.h</text>
</a>
</g>
</g>
<!-- Node2 -->
<g id="node2" class="node">
<title>Node2</title>
<g id="a_node2"><a xlink:href="StateManager_8h.html" target="_top" xlink:title="program state manager">
<polygon fill="white" stroke="#666666" points="166.5,-195 47.5,-195 47.5,-176 166.5,-176 166.5,-195"/>
<text text-anchor="middle" x="107" y="-183" font-family="Helvetica,sans-Serif" font-size="10.00">include/StateManager.h</text>
</a>
</g>
</g>
<!-- Node1&#45;&gt;Node2 -->
<g id="edge1" class="edge">
<title>Node1&#45;&gt;Node2</title>
<path fill="none" stroke="#63b8ff" d="M107,-219.93C107,-211.53 107,-202.13 107,-195.44"/>
<polygon fill="#63b8ff" stroke="#63b8ff" points="103.5,-219.75 107,-229.75 110.5,-219.75 103.5,-219.75"/>
</g>
<!-- Node3 -->
<g id="node3" class="node">
<title>Node3</title>
<g id="a_node3"><a xlink:href="Communicator_8h.html" target="_top" xlink:title="communicate with PC via Serial">
<polygon fill="white" stroke="#666666" points="168,-85 46,-85 46,-66 168,-66 168,-85"/>
<text text-anchor="middle" x="107" y="-73" font-family="Helvetica,sans-Serif" font-size="10.00">include/Communicator.h</text>
</a>
</g>
</g>
<!-- Node2&#45;&gt;Node3 -->
<g id="edge2" class="edge">
<title>Node2&#45;&gt;Node3</title>
<path fill="none" stroke="#63b8ff" d="M107,-164.9C107,-141.33 107,-102.81 107,-85.46"/>
<polygon fill="#63b8ff" stroke="#63b8ff" points="103.5,-164.66 107,-174.66 110.5,-164.66 103.5,-164.66"/>
</g>
<!-- Node4 -->
<g id="node4" class="node">
<title>Node4</title>
<g id="a_node4"><a xlink:href="ButtonsProcessor_8h.html" target="_top" xlink:title="Handle buttons.">
<polygon fill="white" stroke="#666666" points="124,-30 0,-30 0,0 124,0 124,-30"/>
<text text-anchor="start" x="8" y="-18" font-family="Helvetica,sans-Serif" font-size="10.00">include/Controls/Buttons</text>
<text text-anchor="middle" x="62" y="-7" font-family="Helvetica,sans-Serif" font-size="10.00">Processor.h</text>
</a>
</g>
</g>
<!-- Node2&#45;&gt;Node4 -->
<g id="edge4" class="edge">
<title>Node2&#45;&gt;Node4</title>
<path fill="none" stroke="#63b8ff" d="M90.67,-168.24C73.48,-149.87 47.5,-118.18 37,-85 30.96,-65.93 41.73,-44.3 50.97,-30.42"/>
<polygon fill="#63b8ff" stroke="#63b8ff" points="87.4,-169.93 96.86,-174.7 92.44,-165.07 87.4,-169.93"/>
</g>
<!-- Node5 -->
<g id="node5" class="node">
<title>Node5</title>
<g id="a_node5"><a xlink:href="List_8h.html" target="_top" xlink:title="Contains and manipulate list of projects This class contains an array of Strigns which is an projects...">
<polygon fill="white" stroke="#666666" points="255,-140 181,-140 181,-121 255,-121 255,-140"/>
<text text-anchor="middle" x="218" y="-128" font-family="Helvetica,sans-Serif" font-size="10.00">include/List.h</text>
</a>
</g>
</g>
<!-- Node2&#45;&gt;Node5 -->
<g id="edge5" class="edge">
<title>Node2&#45;&gt;Node5</title>
<path fill="none" stroke="#63b8ff" d="M135.7,-170.8C155.79,-161.2 182.06,-148.66 199.45,-140.36"/>
<polygon fill="#63b8ff" stroke="#63b8ff" points="134.35,-168.04 126.83,-175.51 137.36,-174.36 134.35,-168.04"/>
</g>
<!-- Node3&#45;&gt;Node4 -->
<g id="edge3" class="edge">
<title>Node3&#45;&gt;Node4</title>
<path fill="none" stroke="#63b8ff" d="M93.79,-57.33C87.13,-48.67 79.16,-38.3 72.86,-30.11"/>
<polygon fill="#63b8ff" stroke="#63b8ff" points="91.49,-59.08 100.36,-64.87 97.04,-54.81 91.49,-59.08"/>
</g>
<!-- Node5&#45;&gt;Node3 -->
<g id="edge6" class="edge">
<title>Node5&#45;&gt;Node3</title>
<path fill="none" stroke="#63b8ff" d="M189.3,-115.8C169.21,-106.2 142.94,-93.66 125.55,-85.36"/>
<polygon fill="#63b8ff" stroke="#63b8ff" points="187.64,-119.36 198.17,-120.51 190.65,-113.04 187.64,-119.36"/>
</g>
<!-- Node6 -->
<g id="node6" class="node">
<title>Node6</title>
<g id="a_node6"><a xlink:href="JoyProcessor_8h.html" target="_top" xlink:title="Handle joystick.">
<polygon fill="white" stroke="#666666" points="344,-85 186,-85 186,-66 344,-66 344,-85"/>
<text text-anchor="middle" x="265" y="-73" font-family="Helvetica,sans-Serif" font-size="10.00">include/Controls/JoyProcessor.h</text>
</a>
</g>
</g>
<!-- Node5&#45;&gt;Node6 -->
<g id="edge7" class="edge">
<title>Node5&#45;&gt;Node6</title>
<path fill="none" stroke="#63b8ff" d="M232.83,-112.78C240.86,-103.72 250.46,-92.9 257.07,-85.44"/>
<polygon fill="#63b8ff" stroke="#63b8ff" points="230.78,-109.94 226.76,-119.75 236.01,-114.59 230.78,-109.94"/>
</g>
<!-- Node7 -->
<g id="node7" class="node">
<title>Node7</title>
<g id="a_node7"><a xlink:href="Display_8h.html" target="_top" xlink:title="Wrapper for Arduino I2C display.">
<polygon fill="white" stroke="#666666" points="452,-85 362,-85 362,-66 452,-66 452,-85"/>
<text text-anchor="middle" x="407" y="-73" font-family="Helvetica,sans-Serif" font-size="10.00">include/Display.h</text>
</a>
</g>
</g>
<!-- Node5&#45;&gt;Node7 -->
<g id="edge8" class="edge">
<title>Node5&#45;&gt;Node7</title>
<path fill="none" stroke="#63b8ff" d="M260.37,-117.62C295.12,-107.87 343.56,-94.29 375.1,-85.45"/>
<polygon fill="#63b8ff" stroke="#63b8ff" points="259.74,-114.44 251.06,-120.51 261.63,-121.18 259.74,-114.44"/>
</g>
</g>
</svg>
