<?xml version="1.0" encoding="UTF-8" standalone="no"?>
<!DOCTYPE svg PUBLIC "-//W3C//DTD SVG 1.1//EN"
 "http://www.w3.org/Graphics/SVG/1.1/DTD/svg11.dtd">
<!-- Generated by graphviz version 8.0.1 (0)
 -->
<!-- Title: include/StateManager.h Pages: 1 -->
<svg width="486pt" height="192pt"
 viewBox="0.00 0.00 486.00 192.00" xmlns="http://www.w3.org/2000/svg" xmlns:xlink="http://www.w3.org/1999/xlink">
<g id="graph0" class="graph" transform="scale(1 1) rotate(0) translate(4 188)">
<title>include/StateManager.h</title>
<!-- Node1 -->
<g id="node1" class="node">
<title>Node1</title>
<g id="a_node1"><a xlink:title="program state manager">
<polygon fill="#999999" stroke="#666666" points="192.5,-184 73.5,-184 73.5,-165 192.5,-165 192.5,-184"/>
<text text-anchor="middle" x="133" y="-172" font-family="Helvetica,sans-Serif" font-size="10.00">include/StateManager.h</text>
</a>
</g>
</g>
<!-- Node2 -->
<g id="node2" class="node">
<title>Node2</title>
<g id="a_node2"><a xlink:href="Communicator_8h.html" target="_top" xlink:title="communicate with PC via Serial">
<polygon fill="white" stroke="#666666" points="194,-74 72,-74 72,-55 194,-55 194,-74"/>
<text text-anchor="middle" x="133" y="-62" font-family="Helvetica,sans-Serif" font-size="10.00">include/Communicator.h</text>
</a>
</g>
</g>
<!-- Node1&#45;&gt;Node2 -->
<g id="edge1" class="edge">
<title>Node1&#45;&gt;Node2</title>
<path fill="none" stroke="#63b8ff" d="M133,-153.9C133,-130.33 133,-91.81 133,-74.46"/>
<polygon fill="#63b8ff" stroke="#63b8ff" points="129.5,-153.66 133,-163.66 136.5,-153.66 129.5,-153.66"/>
</g>
<!-- Node3 -->
<g id="node3" class="node">
<title>Node3</title>
<g id="a_node3"><a xlink:href="ButtonsProcessor_8h.html" target="_top" xlink:title="Handle buttons.">
<polygon fill="white" stroke="#666666" points="176,-19 0,-19 0,0 176,0 176,-19"/>
<text text-anchor="middle" x="88" y="-7" font-family="Helvetica,sans-Serif" font-size="10.00">include/Controls/ButtonsProcessor.h</text>
</a>
</g>
</g>
<!-- Node1&#45;&gt;Node3 -->
<g id="edge3" class="edge">
<title>Node1&#45;&gt;Node3</title>
<path fill="none" stroke="#63b8ff" d="M116.67,-157.24C99.48,-138.87 73.5,-107.18 63,-74 56.71,-54.12 70.88,-31.56 80.36,-19.4"/>
<polygon fill="#63b8ff" stroke="#63b8ff" points="113.4,-158.93 122.86,-163.7 118.44,-154.07 113.4,-158.93"/>
</g>
<!-- Node4 -->
<g id="node4" class="node">
<title>Node4</title>
<g id="a_node4"><a xlink:href="List_8h.html" target="_top" xlink:title="Contains and manipulate list of projects This class contains an array of Strigns which is an projects...">
<polygon fill="white" stroke="#666666" points="281,-129 207,-129 207,-110 281,-110 281,-129"/>
<text text-anchor="middle" x="244" y="-117" font-family="Helvetica,sans-Serif" font-size="10.00">include/List.h</text>
</a>
</g>
</g>
<!-- Node1&#45;&gt;Node4 -->
<g id="edge4" class="edge">
<title>Node1&#45;&gt;Node4</title>
<path fill="none" stroke="#63b8ff" d="M161.7,-159.8C181.79,-150.2 208.06,-137.66 225.45,-129.36"/>
<polygon fill="#63b8ff" stroke="#63b8ff" points="160.35,-157.04 152.83,-164.51 163.36,-163.36 160.35,-157.04"/>
</g>
<!-- Node2&#45;&gt;Node3 -->
<g id="edge2" class="edge">
<title>Node2&#45;&gt;Node3</title>
<path fill="none" stroke="#63b8ff" d="M118.56,-46.5C110.92,-37.5 101.86,-26.82 95.59,-19.44"/>
<polygon fill="#63b8ff" stroke="#63b8ff" points="116.43,-48.39 125.57,-53.75 121.76,-43.86 116.43,-48.39"/>
</g>
<!-- Node4&#45;&gt;Node2 -->
<g id="edge5" class="edge">
<title>Node4&#45;&gt;Node2</title>
<path fill="none" stroke="#63b8ff" d="M215.3,-104.8C195.21,-95.2 168.94,-82.66 151.55,-74.36"/>
<polygon fill="#63b8ff" stroke="#63b8ff" points="213.64,-108.36 224.17,-109.51 216.65,-102.04 213.64,-108.36"/>
</g>
<!-- Node5 -->
<g id="node5" class="node">
<title>Node5</title>
<g id="a_node5"><a xlink:href="JoyProcessor_8h.html" target="_top" xlink:title="Handle joystick.">
<polygon fill="white" stroke="#666666" points="370,-74 212,-74 212,-55 370,-55 370,-74"/>
<text text-anchor="middle" x="291" y="-62" font-family="Helvetica,sans-Serif" font-size="10.00">include/Controls/JoyProcessor.h</text>
</a>
</g>
</g>
<!-- Node4&#45;&gt;Node5 -->
<g id="edge6" class="edge">
<title>Node4&#45;&gt;Node5</title>
<path fill="none" stroke="#63b8ff" d="M258.83,-101.78C266.86,-92.72 276.46,-81.9 283.07,-74.44"/>
<polygon fill="#63b8ff" stroke="#63b8ff" points="256.78,-98.94 252.76,-108.75 262.01,-103.59 256.78,-98.94"/>
</g>
<!-- Node6 -->
<g id="node6" class="node">
<title>Node6</title>
<g id="a_node6"><a xlink:href="Display_8h.html" target="_top" xlink:title="Wrapper for Arduino I2C display.">
<polygon fill="white" stroke="#666666" points="478,-74 388,-74 388,-55 478,-55 478,-74"/>
<text text-anchor="middle" x="433" y="-62" font-family="Helvetica,sans-Serif" font-size="10.00">include/Display.h</text>
</a>
</g>
</g>
<!-- Node4&#45;&gt;Node6 -->
<g id="edge7" class="edge">
<title>Node4&#45;&gt;Node6</title>
<path fill="none" stroke="#63b8ff" d="M286.37,-106.62C321.12,-96.87 369.56,-83.29 401.1,-74.45"/>
<polygon fill="#63b8ff" stroke="#63b8ff" points="285.74,-103.44 277.06,-109.51 287.63,-110.18 285.74,-103.44"/>
</g>
</g>
</svg>
